<?xml version="1.0" encoding="UTF-8" standalone="no"?>
<!DOCTYPE svg PUBLIC "-//W3C//DTD SVG 1.1//EN"
 "http://www.w3.org/Graphics/SVG/1.1/DTD/svg11.dtd">
<!-- Generated by graphviz version 2.38.0 (20140413.2041)
 -->
<!-- Title: %3 Pages: 1 -->
<svg width="414pt" height="124pt"
 viewBox="0.00 0.00 414.49 124.00" xmlns="http://www.w3.org/2000/svg" xmlns:xlink="http://www.w3.org/1999/xlink">
<g id="graph0" class="graph" transform="scale(1 1) rotate(0) translate(4 120)">
<title>%3</title>
<polygon fill="white" stroke="none" points="-4,4 -4,-120 410.493,-120 410.493,4 -4,4"/>
<!-- ELA_75 -->
<g id="node1" class="node"><title>ELA_75</title>
<polygon fill="none" stroke="black" points="95.8074,-14.5442 95.8074,-29.4558 74.0565,-40 43.2961,-40 21.5452,-29.4558 21.5452,-14.5442 43.2961,-4 74.0565,-4 95.8074,-14.5442"/>
<polygon fill="none" stroke="black" points="99.7887,-12.0329 99.7887,-31.9671 74.9668,-44 42.3858,-44 17.5639,-31.9671 17.5639,-12.0329 42.3858,-7.10543e-15 74.9668,-0 99.7887,-12.0329"/>
<text text-anchor="middle" x="58.6763" y="-23.6" font-family="Times,serif" font-size="8.00">Teste2</text>
<text text-anchor="middle" x="58.6763" y="-15.6" font-family="Times,serif" font-size="8.00">&lt;&lt;Filter&gt;&gt;</text>
</g>
<!-- ELA_76 -->
<g id="node2" class="node"><title>ELA_76</title>
<ellipse fill="none" stroke="black" cx="259.676" cy="-98" rx="42.6352" ry="18"/>
<text text-anchor="middle" x="259.676" y="-99.6" font-family="Times,serif" font-size="8.00">1</text>
<text text-anchor="middle" x="259.676" y="-91.6" font-family="Times,serif" font-size="8.00">&lt;&lt;SplitMap&gt;&gt;</text>
</g>
<!-- ELA_77 -->
<g id="node3" class="node"><title>ELA_77</title>
<ellipse fill="none" stroke="black" cx="176.676" cy="-22" rx="32.8535" ry="18"/>
<text text-anchor="middle" x="176.676" y="-23.6" font-family="Times,serif" font-size="8.00">1</text>
<text text-anchor="middle" x="176.676" y="-15.6" font-family="Times,serif" font-size="8.00">&lt;&lt;Map&gt;&gt;</text>
</g>
<!-- ELA_76&#45;&gt;ELA_77 -->
<g id="edge3" class="edge"><title>ELA_76&#45;&gt;ELA_77</title>
<path fill="none" stroke="black" d="M242.074,-81.3065C230.094,-70.6258 214.084,-56.3518 200.904,-44.6005"/>
<polygon fill="black" stroke="black" points="202.917,-41.7066 193.124,-37.6642 198.259,-46.9315 202.917,-41.7066"/>
</g>
<!-- ELA_78 -->
<g id="node4" class="node"><title>ELA_78</title>
<ellipse fill="none" stroke="black" cx="259.676" cy="-22" rx="32.8535" ry="18"/>
<text text-anchor="middle" x="259.676" y="-23.6" font-family="Times,serif" font-size="8.00">2</text>
<text text-anchor="middle" x="259.676" y="-15.6" font-family="Times,serif" font-size="8.00">&lt;&lt;Map&gt;&gt;</text>
</g>
<!-- ELA_76&#45;&gt;ELA_78 -->
<g id="edge4" class="edge"><title>ELA_76&#45;&gt;ELA_78</title>
<path fill="none" stroke="black" d="M259.676,-79.8369C259.676,-71.0575 259.676,-60.1626 259.676,-50.2675"/>
<polygon fill="black" stroke="black" points="263.176,-50.07 259.676,-40.07 256.176,-50.07 263.176,-50.07"/>
</g>
<!-- ELA_79 -->
<g id="node5" class="node"><title>ELA_79</title>
<polygon fill="none" stroke="black" stroke-dasharray="5,2" points="359.905,-4.04934 362.704,-4.14788 365.475,-4.29534 368.205,-4.49134 370.885,-4.73533 373.502,-5.02664 376.046,-5.36447 378.508,-5.7479 380.879,-6.17587 383.149,-6.64722 385.311,-7.16064 387.356,-7.71474 389.279,-8.308 391.072,-8.93879 392.731,-9.60537 394.251,-10.3059 395.629,-11.0385 396.86,-11.8012 397.944,-12.5918 398.879,-13.4082 399.664,-14.2481 400.299,-15.1093 400.786,-15.9894 401.125,-16.886 401.319,-17.7965 401.372,-18.7186 401.285,-19.6497 401.064,-20.5873 400.713,-21.5287 400.236,-22.4713 399.639,-23.4127 398.928,-24.3503 398.108,-25.2814 397.184,-26.2035 396.164,-27.114 395.053,-28.0106 393.858,-28.8907 392.585,-29.7519 391.24,-30.5918 389.828,-31.4082 388.357,-32.1988 386.83,-32.9615 385.255,-33.6941 383.635,-34.3946 381.976,-35.0612 380.282,-35.692 378.558,-36.2853 376.807,-36.8394 375.033,-37.3528 373.24,-37.8241 371.43,-38.2521 369.605,-38.6355 367.769,-38.9734 365.924,-39.2647 364.07,-39.5087 362.211,-39.7047 360.347,-39.8521 358.48,-39.9507 356.611,-40 354.742,-40 352.873,-39.9507 351.006,-39.8521 349.142,-39.7047 347.282,-39.5087 345.429,-39.2647 343.583,-38.9734 341.747,-38.6355 339.923,-38.2521 338.113,-37.8241 336.319,-37.3528 334.545,-36.8394 332.795,-36.2853 331.07,-35.692 329.377,-35.0612 327.718,-34.3946 326.098,-33.6941 324.522,-32.9615 322.996,-32.1988 321.524,-31.4082 320.113,-30.5918 318.767,-29.7519 317.494,-28.8907 316.299,-28.0106 315.188,-27.114 314.168,-26.2035 313.245,-25.2814 312.425,-24.3503 311.713,-23.4127 311.116,-22.4713 310.64,-21.5287 310.288,-20.5873 310.067,-19.6497 309.981,-18.7186 310.033,-17.7965 310.228,-16.886 310.567,-15.9894 311.053,-15.1093 311.689,-14.2481 312.474,-13.4082 313.408,-12.5918 314.492,-11.8012 315.724,-11.0385 317.101,-10.3059 318.621,-9.60537 320.28,-8.93879 322.074,-8.308 323.996,-7.71474 326.042,-7.16064 328.203,-6.64722 330.473,-6.17587 332.844,-5.7479 335.306,-5.36447 337.851,-5.02664 340.468,-4.73533 343.147,-4.49134 345.878,-4.29534 348.648,-4.14788 351.448,-4.04934 354.265,-4 357.088,-4 359.905,-4.04934"/>
<text text-anchor="middle" x="355.676" y="-23.6" font-family="Times,serif" font-size="8.00">3</text>
<text text-anchor="middle" x="355.676" y="-15.6" font-family="Times,serif" font-size="8.00">&lt;&lt;SplitMap&gt;&gt;</text>
</g>
<!-- ELA_76&#45;&gt;ELA_79 -->
<g id="edge5" class="edge"><title>ELA_76&#45;&gt;ELA_79</title>
<path fill="none" stroke="black" d="M279.568,-81.6672C293.747,-70.737 312.98,-55.9119 328.563,-43.8995"/>
<polygon fill="black" stroke="black" points="331.007,-46.4351 336.79,-37.5579 326.733,-40.891 331.007,-46.4351"/>
</g>
<!-- ELA_80 -->
<g id="node6" class="node"><title>ELA_80</title>
<ellipse fill="none" stroke="black" cx="363.676" cy="-98" rx="42.6352" ry="18"/>
<text text-anchor="middle" x="363.676" y="-99.6" font-family="Times,serif" font-size="8.00">4</text>
<text text-anchor="middle" x="363.676" y="-91.6" font-family="Times,serif" font-size="8.00">&lt;&lt;SplitMap&gt;&gt;</text>
</g>
<!-- ELA_50 -->
<g id="node7" class="node"><title>ELA_50</title>
<ellipse fill="none" stroke="black" cx="32.6763" cy="-98" rx="32.8535" ry="18"/>
<text text-anchor="middle" x="32.6763" y="-99.6" font-family="Times,serif" font-size="8.00">SciPhy</text>
<text text-anchor="middle" x="32.6763" y="-91.6" font-family="Times,serif" font-size="8.00">&lt;&lt;Map&gt;&gt;</text>
</g>
<!-- ELA_50&#45;&gt;ELA_75 -->
<g id="edge1" class="edge"><title>ELA_50&#45;&gt;ELA_75</title>
<path fill="none" stroke="black" d="M38.5761,-80.2083C41.3268,-72.3793 44.6893,-62.8091 47.8712,-53.7531"/>
<polygon fill="black" stroke="black" points="51.2026,-54.8297 51.2154,-44.2349 44.5984,-52.5092 51.2026,-54.8297"/>
</g>
<!-- ELA_51 -->
<g id="node8" class="node"><title>ELA_51</title>
<ellipse fill="none" stroke="black" cx="122.676" cy="-98" rx="38.8625" ry="18"/>
<text text-anchor="middle" x="122.676" y="-99.6" font-family="Times,serif" font-size="8.00">teste</text>
<text text-anchor="middle" x="122.676" y="-91.6" font-family="Times,serif" font-size="8.00">&lt;&lt;Reduce&gt;&gt;</text>
</g>
<!-- ELA_51&#45;&gt;ELA_75 -->
<g id="edge2" class="edge"><title>ELA_51&#45;&gt;ELA_75</title>
<path fill="none" stroke="black" d="M108.789,-80.9431C101.305,-72.2894 91.8497,-61.3568 83.1741,-51.3256"/>
<polygon fill="black" stroke="black" points="85.625,-48.8089 76.4361,-43.5348 80.3304,-53.388 85.625,-48.8089"/>
</g>
</g>
</svg>
