<?xml version="1.0" encoding="UTF-8" standalone="no"?>
<!DOCTYPE svg PUBLIC "-//W3C//DTD SVG 1.1//EN"
 "http://www.w3.org/Graphics/SVG/1.1/DTD/svg11.dtd">
<!-- Generated by graphviz version 2.38.0 (20140413.2041)
 -->
<!-- Title: %3 Pages: 1 -->
<svg width="612pt" height="260pt"
 viewBox="0.00 0.00 611.71 260.00" xmlns="http://www.w3.org/2000/svg" xmlns:xlink="http://www.w3.org/1999/xlink">
<g id="graph0" class="graph" transform="scale(1 1) rotate(0) translate(4 256)">
<title>%3</title>
<polygon fill="white" stroke="none" points="-4,4 -4,-256 607.71,-256 607.71,4 -4,4"/>
<!-- 1 -->
<g id="node1" class="node"><title>1</title>
<ellipse fill="none" stroke="black" cx="153.71" cy="-234" rx="41.2808" ry="18"/>
<text text-anchor="middle" x="153.71" y="-235.6" font-family="Times,serif" font-size="8.00">PreProcessing</text>
<text text-anchor="middle" x="153.71" y="-227.6" font-family="Times,serif" font-size="8.00">Map</text>
</g>
<!-- 2 -->
<g id="node2" class="node"><title>2</title>
<ellipse fill="none" stroke="black" cx="30.711" cy="-162" rx="30.9235" ry="18"/>
<text text-anchor="middle" x="30.711" y="-163.6" font-family="Times,serif" font-size="8.00">Prodigal</text>
<text text-anchor="middle" x="30.711" y="-155.6" font-family="Times,serif" font-size="8.00">SplitMap</text>
</g>
<!-- 1&#45;&gt;2 -->
<g id="edge1" class="edge"><title>1&#45;&gt;2</title>
<path fill="none" stroke="black" d="M129.7,-219.34C110.09,-208.18 82.26,-192.34 61.098,-180.29"/>
<polygon fill="black" stroke="black" points="62.6122,-177.125 52.19,-175.22 59.1497,-183.208 62.6122,-177.125"/>
</g>
<!-- 3 -->
<g id="node3" class="node"><title>3</title>
<ellipse fill="none" stroke="black" cx="112.71" cy="-162" rx="33.1651" ry="18"/>
<text text-anchor="middle" x="112.71" y="-163.6" font-family="Times,serif" font-size="8.00">MetaGene</text>
<text text-anchor="middle" x="112.71" y="-155.6" font-family="Times,serif" font-size="8.00">SplitMap</text>
</g>
<!-- 1&#45;&gt;3 -->
<g id="edge2" class="edge"><title>1&#45;&gt;3</title>
<path fill="none" stroke="black" d="M143.99,-216.41C139.09,-208.04 133.04,-197.71 127.57,-188.37"/>
<polygon fill="black" stroke="black" points="130.433,-186.332 122.36,-179.47 124.391,-189.868 130.433,-186.332"/>
</g>
<!-- 4 -->
<g id="node4" class="node"><title>4</title>
<ellipse fill="none" stroke="black" cx="195.71" cy="-162" rx="32" ry="18"/>
<text text-anchor="middle" x="195.71" y="-163.6" font-family="Times,serif" font-size="8.00">FragGene</text>
<text text-anchor="middle" x="195.71" y="-155.6" font-family="Times,serif" font-size="8.00">SplitMap</text>
</g>
<!-- 1&#45;&gt;4 -->
<g id="edge3" class="edge"><title>1&#45;&gt;4</title>
<path fill="none" stroke="black" d="M163.66,-216.41C168.74,-207.95 175.01,-197.49 180.66,-188.08"/>
<polygon fill="black" stroke="black" points="183.683,-189.845 185.83,-179.47 177.681,-186.241 183.683,-189.845"/>
</g>
<!-- 5 -->
<g id="node5" class="node"><title>5</title>
<ellipse fill="none" stroke="black" cx="244.71" cy="-90" rx="30.9235" ry="18"/>
<text text-anchor="middle" x="244.71" y="-91.6" font-family="Times,serif" font-size="8.00">Blast</text>
<text text-anchor="middle" x="244.71" y="-83.6" font-family="Times,serif" font-size="8.00">SplitMap</text>
</g>
<!-- 1&#45;&gt;5 -->
<g id="edge4" class="edge"><title>1&#45;&gt;5</title>
<path fill="none" stroke="black" d="M184.19,-221.7C202.63,-213.18 224.81,-199.58 236.71,-180 247.89,-161.6 249.3,-137 248.25,-118.32"/>
<polygon fill="black" stroke="black" points="251.718,-117.785 247.4,-108.11 244.742,-118.366 251.718,-117.785"/>
</g>
<!-- 6 -->
<g id="node6" class="node"><title>6</title>
<ellipse fill="none" stroke="black" cx="143.71" cy="-90" rx="32.5" ry="18"/>
<text text-anchor="middle" x="143.71" y="-91.6" font-family="Times,serif" font-size="8.00">Filter1</text>
<text text-anchor="middle" x="143.71" y="-83.6" font-family="Times,serif" font-size="8.00">MRQuery</text>
</g>
<!-- 2&#45;&gt;6 -->
<g id="edge5" class="edge"><title>2&#45;&gt;6</title>
<path fill="none" stroke="black" d="M51.174,-148.32C68.713,-137.46 94.204,-121.67 113.99,-109.41"/>
<polygon fill="black" stroke="black" points="115.971,-112.3 122.63,-104.06 112.285,-106.349 115.971,-112.3"/>
</g>
<!-- 3&#45;&gt;6 -->
<g id="edge6" class="edge"><title>3&#45;&gt;6</title>
<path fill="none" stroke="black" d="M120.06,-144.41C123.63,-136.34 128.02,-126.43 132.04,-117.35"/>
<polygon fill="black" stroke="black" points="135.349,-118.521 136.2,-107.96 128.949,-115.685 135.349,-118.521"/>
</g>
<!-- 4&#45;&gt;6 -->
<g id="edge7" class="edge"><title>4&#45;&gt;6</title>
<path fill="none" stroke="black" d="M183.91,-145.12C177.33,-136.26 169,-125.04 161.63,-115.12"/>
<polygon fill="black" stroke="black" points="164.235,-112.757 155.46,-106.82 158.617,-116.934 164.235,-112.757"/>
</g>
<!-- 7 -->
<g id="node7" class="node"><title>7</title>
<ellipse fill="none" stroke="black" cx="218.71" cy="-18" rx="32.5" ry="18"/>
<text text-anchor="middle" x="218.71" y="-19.6" font-family="Times,serif" font-size="8.00">Filter2</text>
<text text-anchor="middle" x="218.71" y="-11.6" font-family="Times,serif" font-size="8.00">MRQuery</text>
</g>
<!-- 5&#45;&gt;7 -->
<g id="edge8" class="edge"><title>5&#45;&gt;7</title>
<path fill="none" stroke="black" d="M238.42,-72.055C235.45,-64.059 231.83,-54.331 228.52,-45.4"/>
<polygon fill="black" stroke="black" points="231.713,-43.9445 224.95,-35.789 225.151,-46.3819 231.713,-43.9445"/>
</g>
<!-- 6&#45;&gt;7 -->
<g id="edge9" class="edge"><title>6&#45;&gt;7</title>
<path fill="none" stroke="black" d="M159.62,-74.155C169.96,-64.503 183.62,-51.749 195.21,-40.937"/>
<polygon fill="black" stroke="black" points="197.908,-43.2063 202.83,-33.824 193.132,-38.0892 197.908,-43.2063"/>
</g>
<!-- 8 -->
<g id="node8" class="node"><title>8</title>
<ellipse fill="none" stroke="black" cx="447.71" cy="-234" rx="41.2808" ry="18"/>
<text text-anchor="middle" x="447.71" y="-235.6" font-family="Times,serif" font-size="8.00">PreProcessing</text>
<text text-anchor="middle" x="447.71" y="-227.6" font-family="Times,serif" font-size="8.00">Map</text>
</g>
<!-- 9 -->
<g id="node9" class="node"><title>9</title>
<ellipse fill="none" stroke="black" cx="325.71" cy="-162" rx="32.4053" ry="18"/>
<text text-anchor="middle" x="325.71" y="-163.6" font-family="Times,serif" font-size="8.00">FastaSplit</text>
<text text-anchor="middle" x="325.71" y="-155.6" font-family="Times,serif" font-size="8.00">SplitMap</text>
</g>
<!-- 8&#45;&gt;9 -->
<g id="edge10" class="edge"><title>8&#45;&gt;9</title>
<path fill="none" stroke="black" d="M423.61,-219.17C404.25,-208.06 376.95,-192.4 356.1,-180.44"/>
<polygon fill="black" stroke="black" points="357.724,-177.337 347.31,-175.39 354.237,-183.406 357.724,-177.337"/>
</g>
<!-- 10 -->
<g id="node10" class="node"><title>10</title>
<ellipse fill="none" stroke="black" cx="406.71" cy="-162" rx="30.9235" ry="18"/>
<text text-anchor="middle" x="406.71" y="-163.6" font-family="Times,serif" font-size="8.00">Prodigal</text>
<text text-anchor="middle" x="406.71" y="-155.6" font-family="Times,serif" font-size="8.00">SplitMap</text>
</g>
<!-- 8&#45;&gt;10 -->
<g id="edge11" class="edge"><title>8&#45;&gt;10</title>
<path fill="none" stroke="black" d="M437.99,-216.41C433.09,-208.04 427.04,-197.71 421.57,-188.37"/>
<polygon fill="black" stroke="black" points="424.433,-186.332 416.36,-179.47 418.391,-189.868 424.433,-186.332"/>
</g>
<!-- 11 -->
<g id="node11" class="node"><title>11</title>
<ellipse fill="none" stroke="black" cx="488.71" cy="-162" rx="33.1651" ry="18"/>
<text text-anchor="middle" x="488.71" y="-163.6" font-family="Times,serif" font-size="8.00">MetaGene</text>
<text text-anchor="middle" x="488.71" y="-155.6" font-family="Times,serif" font-size="8.00">SplitMap</text>
</g>
<!-- 8&#45;&gt;11 -->
<g id="edge12" class="edge"><title>8&#45;&gt;11</title>
<path fill="none" stroke="black" d="M457.43,-216.41C462.33,-208.04 468.38,-197.71 473.85,-188.37"/>
<polygon fill="black" stroke="black" points="477.029,-189.868 479.06,-179.47 470.987,-186.332 477.029,-189.868"/>
</g>
<!-- 12 -->
<g id="node12" class="node"><title>12</title>
<ellipse fill="none" stroke="black" cx="571.71" cy="-162" rx="32" ry="18"/>
<text text-anchor="middle" x="571.71" y="-163.6" font-family="Times,serif" font-size="8.00">FragGene</text>
<text text-anchor="middle" x="571.71" y="-155.6" font-family="Times,serif" font-size="8.00">SplitMap</text>
</g>
<!-- 8&#45;&gt;12 -->
<g id="edge13" class="edge"><title>8&#45;&gt;12</title>
<path fill="none" stroke="black" d="M471.91,-219.34C491.68,-208.18 519.74,-192.34 541.08,-180.29"/>
<polygon fill="black" stroke="black" points="543.073,-183.184 550.06,-175.22 539.631,-177.089 543.073,-183.184"/>
</g>
<!-- 13 -->
<g id="node13" class="node"><title>13</title>
<ellipse fill="none" stroke="black" cx="325.71" cy="-90" rx="30.9235" ry="18"/>
<text text-anchor="middle" x="325.71" y="-91.6" font-family="Times,serif" font-size="8.00">Blast</text>
<text text-anchor="middle" x="325.71" y="-83.6" font-family="Times,serif" font-size="8.00">SplitMap</text>
</g>
<!-- 9&#45;&gt;13 -->
<g id="edge14" class="edge"><title>9&#45;&gt;13</title>
<path fill="none" stroke="black" d="M325.71,-143.7C325.71,-135.98 325.71,-126.71 325.71,-118.11"/>
<polygon fill="black" stroke="black" points="329.21,-118.1 325.71,-108.1 322.21,-118.1 329.21,-118.1"/>
</g>
<!-- 14 -->
<g id="node14" class="node"><title>14</title>
<ellipse fill="none" stroke="black" cx="447.71" cy="-90" rx="32.5" ry="18"/>
<text text-anchor="middle" x="447.71" y="-91.6" font-family="Times,serif" font-size="8.00">Filter1</text>
<text text-anchor="middle" x="447.71" y="-83.6" font-family="Times,serif" font-size="8.00">MRQuery</text>
</g>
<!-- 10&#45;&gt;14 -->
<g id="edge15" class="edge"><title>10&#45;&gt;14</title>
<path fill="none" stroke="black" d="M416.22,-144.76C421.17,-136.32 427.33,-125.8 432.89,-116.31"/>
<polygon fill="black" stroke="black" points="435.94,-118.028 437.97,-107.63 429.898,-114.493 435.94,-118.028"/>
</g>
<!-- 11&#45;&gt;14 -->
<g id="edge16" class="edge"><title>11&#45;&gt;14</title>
<path fill="none" stroke="black" d="M478.99,-144.41C474.09,-136.04 468.04,-125.71 462.57,-116.37"/>
<polygon fill="black" stroke="black" points="465.433,-114.332 457.36,-107.47 459.391,-117.868 465.433,-114.332"/>
</g>
<!-- 12&#45;&gt;14 -->
<g id="edge17" class="edge"><title>12&#45;&gt;14</title>
<path fill="none" stroke="black" d="M549.83,-148.65C530.12,-137.52 500.93,-121.04 478.8,-108.55"/>
<polygon fill="black" stroke="black" points="480.22,-105.333 469.79,-103.47 476.782,-111.43 480.22,-105.333"/>
</g>
<!-- 15 -->
<g id="node15" class="node"><title>15</title>
<ellipse fill="none" stroke="black" cx="350.71" cy="-18" rx="32.5" ry="18"/>
<text text-anchor="middle" x="350.71" y="-19.6" font-family="Times,serif" font-size="8.00">Filter2</text>
<text text-anchor="middle" x="350.71" y="-11.6" font-family="Times,serif" font-size="8.00">MRQuery</text>
</g>
<!-- 13&#45;&gt;15 -->
<g id="edge18" class="edge"><title>13&#45;&gt;15</title>
<path fill="none" stroke="black" d="M331.76,-72.055C334.62,-64.059 338.09,-54.331 341.28,-45.4"/>
<polygon fill="black" stroke="black" points="344.645,-46.3836 344.71,-35.789 338.052,-44.0308 344.645,-46.3836"/>
</g>
<!-- 14&#45;&gt;15 -->
<g id="edge19" class="edge"><title>14&#45;&gt;15</title>
<path fill="none" stroke="black" d="M428.55,-75.17C414.2,-64.816 394.36,-50.502 378.31,-38.915"/>
<polygon fill="black" stroke="black" points="379.997,-35.816 369.84,-32.801 375.9,-41.4918 379.997,-35.816"/>
</g>
</g>
</svg>
