<?xml version="1.0" encoding="UTF-8" standalone="no"?>
<!DOCTYPE svg PUBLIC "-//W3C//DTD SVG 1.1//EN"
 "http://www.w3.org/Graphics/SVG/1.1/DTD/svg11.dtd">
<!-- Generated by graphviz version 2.38.0 (20140413.2041)
 -->
<!-- Title: %3 Pages: 1 -->
<svg width="908pt" height="260pt"
 viewBox="0.00 0.00 908.08 260.00" xmlns="http://www.w3.org/2000/svg" xmlns:xlink="http://www.w3.org/1999/xlink">
<g id="graph0" class="graph" transform="scale(1 1) rotate(0) translate(4.00045 256)">
<title>%3</title>
<polygon fill="white" stroke="none" points="-4.00045,4 -4.00045,-256 904.08,-256 904.08,4 -4.00045,4"/>
<!-- 1 -->
<g id="node1" class="node"><title>1</title>
<ellipse fill="none" stroke="black" cx="156.08" cy="-234" rx="41.2808" ry="18"/>
<text text-anchor="middle" x="156.08" y="-235.6" font-family="Times,serif" font-size="8.00">PreProcessing</text>
<text text-anchor="middle" x="156.08" y="-227.6" font-family="Times,serif" font-size="8.00">Map</text>
</g>
<!-- 3 -->
<g id="node2" class="node"><title>3</title>
<ellipse fill="none" stroke="black" cx="33.082" cy="-162" rx="33.1651" ry="18"/>
<text text-anchor="middle" x="33.082" y="-163.6" font-family="Times,serif" font-size="8.00">MetaGene</text>
<text text-anchor="middle" x="33.082" y="-155.6" font-family="Times,serif" font-size="8.00">SplitMap</text>
</g>
<!-- 1&#45;&gt;3 -->
<g id="edge1" class="edge"><title>1&#45;&gt;3</title>
<path fill="none" stroke="black" d="M132.07,-219.34C112.71,-208.32 85.321,-192.73 64.261,-180.74"/>
<polygon fill="black" stroke="black" points="65.7975,-177.588 55.374,-175.69 62.3391,-183.674 65.7975,-177.588"/>
</g>
<!-- 4 -->
<g id="node3" class="node"><title>4</title>
<ellipse fill="none" stroke="black" cx="116.08" cy="-162" rx="32" ry="18"/>
<text text-anchor="middle" x="116.08" y="-163.6" font-family="Times,serif" font-size="8.00">FragGene</text>
<text text-anchor="middle" x="116.08" y="-155.6" font-family="Times,serif" font-size="8.00">SplitMap</text>
</g>
<!-- 1&#45;&gt;4 -->
<g id="edge2" class="edge"><title>1&#45;&gt;4</title>
<path fill="none" stroke="black" d="M146.6,-216.41C141.82,-208.04 135.92,-197.71 130.58,-188.37"/>
<polygon fill="black" stroke="black" points="133.493,-186.413 125.49,-179.47 127.416,-189.888 133.493,-186.413"/>
</g>
<!-- 2 -->
<g id="node4" class="node"><title>2</title>
<ellipse fill="none" stroke="black" cx="197.08" cy="-162" rx="30.9235" ry="18"/>
<text text-anchor="middle" x="197.08" y="-163.6" font-family="Times,serif" font-size="8.00">Prodigal</text>
<text text-anchor="middle" x="197.08" y="-155.6" font-family="Times,serif" font-size="8.00">SplitMap</text>
</g>
<!-- 1&#45;&gt;2 -->
<g id="edge3" class="edge"><title>1&#45;&gt;2</title>
<path fill="none" stroke="black" d="M165.8,-216.41C170.7,-208.04 176.75,-197.71 182.22,-188.37"/>
<polygon fill="black" stroke="black" points="185.4,-189.867 187.44,-179.47 179.362,-186.325 185.4,-189.867"/>
</g>
<!-- 5 -->
<g id="node5" class="node"><title>5</title>
<ellipse fill="none" stroke="black" cx="246.08" cy="-90" rx="30.9235" ry="18"/>
<text text-anchor="middle" x="246.08" y="-91.6" font-family="Times,serif" font-size="8.00">Blast</text>
<text text-anchor="middle" x="246.08" y="-83.6" font-family="Times,serif" font-size="8.00">SplitMap</text>
</g>
<!-- 1&#45;&gt;5 -->
<g id="edge4" class="edge"><title>1&#45;&gt;5</title>
<path fill="none" stroke="black" d="M185.77,-221.47C203.74,-212.86 225.39,-199.24 237.08,-180 248.27,-161.58 249.98,-136.98 249.19,-118.31"/>
<polygon fill="black" stroke="black" points="252.666,-117.837 248.49,-108.1 245.682,-118.316 252.666,-117.837"/>
</g>
<!-- 6 -->
<g id="node6" class="node"><title>6</title>
<ellipse fill="none" stroke="black" cx="136.08" cy="-90" rx="32.5" ry="18"/>
<text text-anchor="middle" x="136.08" y="-91.6" font-family="Times,serif" font-size="8.00">Filter1</text>
<text text-anchor="middle" x="136.08" y="-83.6" font-family="Times,serif" font-size="8.00">MRQuery</text>
</g>
<!-- 3&#45;&gt;6 -->
<g id="edge5" class="edge"><title>3&#45;&gt;6</title>
<path fill="none" stroke="black" d="M52.942,-147.5C68.474,-136.95 90.274,-122.13 107.65,-110.32"/>
<polygon fill="black" stroke="black" points="109.973,-112.973 116.28,-104.46 106.041,-107.182 109.973,-112.973"/>
</g>
<!-- 4&#45;&gt;6 -->
<g id="edge6" class="edge"><title>4&#45;&gt;6</title>
<path fill="none" stroke="black" d="M120.92,-144.05C123.15,-136.26 125.85,-126.82 128.35,-118.08"/>
<polygon fill="black" stroke="black" points="131.768,-118.857 131.15,-108.28 125.037,-116.934 131.768,-118.857"/>
</g>
<!-- 2&#45;&gt;6 -->
<g id="edge7" class="edge"><title>2&#45;&gt;6</title>
<path fill="none" stroke="black" d="M183.54,-145.46C175.57,-136.31 165.32,-124.55 156.39,-114.31"/>
<polygon fill="black" stroke="black" points="158.787,-111.733 149.58,-106.49 153.508,-116.33 158.787,-111.733"/>
</g>
<!-- 7 -->
<g id="node7" class="node"><title>7</title>
<ellipse fill="none" stroke="black" cx="190.08" cy="-18" rx="32.5" ry="18"/>
<text text-anchor="middle" x="190.08" y="-19.6" font-family="Times,serif" font-size="8.00">Filter2</text>
<text text-anchor="middle" x="190.08" y="-11.6" font-family="Times,serif" font-size="8.00">MRQuery</text>
</g>
<!-- 5&#45;&gt;7 -->
<g id="edge8" class="edge"><title>5&#45;&gt;7</title>
<path fill="none" stroke="black" d="M233.65,-73.465C226.5,-64.528 217.37,-53.109 209.31,-43.037"/>
<polygon fill="black" stroke="black" points="211.841,-40.5979 202.86,-34.977 206.375,-44.9716 211.841,-40.5979"/>
</g>
<!-- 6&#45;&gt;7 -->
<g id="edge9" class="edge"><title>6&#45;&gt;7</title>
<path fill="none" stroke="black" d="M148.34,-73.116C155.24,-64.166 164,-52.81 171.71,-42.815"/>
<polygon fill="black" stroke="black" points="174.541,-44.8758 177.88,-34.821 168.999,-40.5988 174.541,-44.8758"/>
</g>
<!-- 8 -->
<g id="node8" class="node"><title>8</title>
<ellipse fill="none" stroke="black" cx="451.08" cy="-234" rx="41.2808" ry="18"/>
<text text-anchor="middle" x="451.08" y="-235.6" font-family="Times,serif" font-size="8.00">PreProcessing</text>
<text text-anchor="middle" x="451.08" y="-227.6" font-family="Times,serif" font-size="8.00">Map</text>
</g>
<!-- 9 -->
<g id="node9" class="node"><title>9</title>
<ellipse fill="none" stroke="black" cx="327.08" cy="-162" rx="32.4053" ry="18"/>
<text text-anchor="middle" x="327.08" y="-163.6" font-family="Times,serif" font-size="8.00">FastaSplit</text>
<text text-anchor="middle" x="327.08" y="-155.6" font-family="Times,serif" font-size="8.00">SplitMap</text>
</g>
<!-- 8&#45;&gt;9 -->
<g id="edge10" class="edge"><title>8&#45;&gt;9</title>
<path fill="none" stroke="black" d="M426.88,-219.34C407.23,-208.25 379.4,-192.53 358.11,-180.52"/>
<polygon fill="black" stroke="black" points="359.568,-177.324 349.14,-175.45 356.123,-183.418 359.568,-177.324"/>
</g>
<!-- 11 -->
<g id="node10" class="node"><title>11</title>
<ellipse fill="none" stroke="black" cx="410.08" cy="-162" rx="33.1651" ry="18"/>
<text text-anchor="middle" x="410.08" y="-163.6" font-family="Times,serif" font-size="8.00">MetaGene</text>
<text text-anchor="middle" x="410.08" y="-155.6" font-family="Times,serif" font-size="8.00">SplitMap</text>
</g>
<!-- 8&#45;&gt;11 -->
<g id="edge11" class="edge"><title>8&#45;&gt;11</title>
<path fill="none" stroke="black" d="M441.37,-216.41C436.46,-208.04 430.41,-197.71 424.94,-188.37"/>
<polygon fill="black" stroke="black" points="427.803,-186.332 419.73,-179.47 421.761,-189.868 427.803,-186.332"/>
</g>
<!-- 12 -->
<g id="node11" class="node"><title>12</title>
<ellipse fill="none" stroke="black" cx="493.08" cy="-162" rx="32" ry="18"/>
<text text-anchor="middle" x="493.08" y="-163.6" font-family="Times,serif" font-size="8.00">FragGene</text>
<text text-anchor="middle" x="493.08" y="-155.6" font-family="Times,serif" font-size="8.00">SplitMap</text>
</g>
<!-- 8&#45;&gt;12 -->
<g id="edge12" class="edge"><title>8&#45;&gt;12</title>
<path fill="none" stroke="black" d="M461.04,-216.41C466.11,-207.95 472.39,-197.49 478.04,-188.08"/>
<polygon fill="black" stroke="black" points="481.062,-189.847 483.2,-179.47 475.057,-186.248 481.062,-189.847"/>
</g>
<!-- 10 -->
<g id="node12" class="node"><title>10</title>
<ellipse fill="none" stroke="black" cx="574.08" cy="-162" rx="30.9235" ry="18"/>
<text text-anchor="middle" x="574.08" y="-163.6" font-family="Times,serif" font-size="8.00">Prodigal</text>
<text text-anchor="middle" x="574.08" y="-155.6" font-family="Times,serif" font-size="8.00">SplitMap</text>
</g>
<!-- 8&#45;&gt;10 -->
<g id="edge13" class="edge"><title>8&#45;&gt;10</title>
<path fill="none" stroke="black" d="M475.09,-219.34C494.7,-208.18 522.53,-192.34 543.7,-180.29"/>
<polygon fill="black" stroke="black" points="545.643,-183.211 552.6,-175.22 542.179,-177.129 545.643,-183.211"/>
</g>
<!-- 13 -->
<g id="node13" class="node"><title>13</title>
<ellipse fill="none" stroke="black" cx="327.08" cy="-90" rx="30.9235" ry="18"/>
<text text-anchor="middle" x="327.08" y="-91.6" font-family="Times,serif" font-size="8.00">Blast</text>
<text text-anchor="middle" x="327.08" y="-83.6" font-family="Times,serif" font-size="8.00">SplitMap</text>
</g>
<!-- 9&#45;&gt;13 -->
<g id="edge14" class="edge"><title>9&#45;&gt;13</title>
<path fill="none" stroke="black" d="M327.08,-143.7C327.08,-135.98 327.08,-126.71 327.08,-118.11"/>
<polygon fill="black" stroke="black" points="330.58,-118.1 327.08,-108.1 323.58,-118.1 330.58,-118.1"/>
</g>
<!-- 14 -->
<g id="node14" class="node"><title>14</title>
<ellipse fill="none" stroke="black" cx="574.08" cy="-90" rx="32.5" ry="18"/>
<text text-anchor="middle" x="574.08" y="-91.6" font-family="Times,serif" font-size="8.00">Filter1</text>
<text text-anchor="middle" x="574.08" y="-83.6" font-family="Times,serif" font-size="8.00">MRQuery</text>
</g>
<!-- 10&#45;&gt;14 -->
<g id="edge15" class="edge"><title>10&#45;&gt;14</title>
<path fill="none" stroke="black" d="M574.08,-143.7C574.08,-135.98 574.08,-126.71 574.08,-118.11"/>
<polygon fill="black" stroke="black" points="577.58,-118.1 574.08,-108.1 570.58,-118.1 577.58,-118.1"/>
</g>
<!-- 15 -->
<g id="node15" class="node"><title>15</title>
<ellipse fill="none" stroke="black" cx="327.08" cy="-18" rx="32.5" ry="18"/>
<text text-anchor="middle" x="327.08" y="-19.6" font-family="Times,serif" font-size="8.00">Filter2</text>
<text text-anchor="middle" x="327.08" y="-11.6" font-family="Times,serif" font-size="8.00">MRQuery</text>
</g>
<!-- 13&#45;&gt;15 -->
<g id="edge16" class="edge"><title>13&#45;&gt;15</title>
<path fill="none" stroke="black" d="M327.08,-71.697C327.08,-63.983 327.08,-54.712 327.08,-46.112"/>
<polygon fill="black" stroke="black" points="330.58,-46.104 327.08,-36.104 323.58,-46.104 330.58,-46.104"/>
</g>
<!-- 48 -->
<g id="node16" class="node"><title>48</title>
<ellipse fill="none" stroke="black" cx="655.08" cy="-90" rx="30.9235" ry="18"/>
<text text-anchor="middle" x="655.08" y="-91.6" font-family="Times,serif" font-size="8.00">Blast</text>
<text text-anchor="middle" x="655.08" y="-83.6" font-family="Times,serif" font-size="8.00">SplitMap</text>
</g>
<!-- 55 -->
<g id="node17" class="node"><title>55</title>
<ellipse fill="none" stroke="black" cx="710.08" cy="-18" rx="32.5" ry="18"/>
<text text-anchor="middle" x="710.08" y="-19.6" font-family="Times,serif" font-size="8.00">Filter2</text>
<text text-anchor="middle" x="710.08" y="-11.6" font-family="Times,serif" font-size="8.00">MRQuery</text>
</g>
<!-- 48&#45;&gt;55 -->
<g id="edge17" class="edge"><title>48&#45;&gt;55</title>
<path fill="none" stroke="black" d="M667.29,-73.465C674.31,-64.528 683.28,-53.109 691.2,-43.037"/>
<polygon fill="black" stroke="black" points="694.106,-45.0033 697.53,-34.977 688.601,-40.6798 694.106,-45.0033"/>
</g>
<!-- 51 -->
<g id="node18" class="node"><title>51</title>
<ellipse fill="none" stroke="black" cx="703.08" cy="-162" rx="30.9235" ry="18"/>
<text text-anchor="middle" x="703.08" y="-163.6" font-family="Times,serif" font-size="8.00">Prodigal</text>
<text text-anchor="middle" x="703.08" y="-155.6" font-family="Times,serif" font-size="8.00">SplitMap</text>
</g>
<!-- 54 -->
<g id="node19" class="node"><title>54</title>
<ellipse fill="none" stroke="black" cx="766.08" cy="-90" rx="32.5" ry="18"/>
<text text-anchor="middle" x="766.08" y="-91.6" font-family="Times,serif" font-size="8.00">Filter1</text>
<text text-anchor="middle" x="766.08" y="-83.6" font-family="Times,serif" font-size="8.00">MRQuery</text>
</g>
<!-- 51&#45;&gt;54 -->
<g id="edge18" class="edge"><title>51&#45;&gt;54</title>
<path fill="none" stroke="black" d="M716.75,-145.81C725.06,-136.58 735.83,-124.61 745.19,-114.22"/>
<polygon fill="black" stroke="black" points="747.92,-116.418 752,-106.64 742.713,-111.74 747.92,-116.418"/>
</g>
<!-- 54&#45;&gt;55 -->
<g id="edge19" class="edge"><title>54&#45;&gt;55</title>
<path fill="none" stroke="black" d="M753.38,-73.116C746.22,-64.166 737.13,-52.81 729.13,-42.815"/>
<polygon fill="black" stroke="black" points="731.718,-40.4468 722.74,-34.821 726.25,-44.8175 731.718,-40.4468"/>
</g>
<!-- 52 -->
<g id="node20" class="node"><title>52</title>
<ellipse fill="none" stroke="black" cx="785.08" cy="-162" rx="33.1651" ry="18"/>
<text text-anchor="middle" x="785.08" y="-163.6" font-family="Times,serif" font-size="8.00">MetaGene</text>
<text text-anchor="middle" x="785.08" y="-155.6" font-family="Times,serif" font-size="8.00">SplitMap</text>
</g>
<!-- 52&#45;&gt;54 -->
<g id="edge20" class="edge"><title>52&#45;&gt;54</title>
<path fill="none" stroke="black" d="M780.48,-144.05C778.37,-136.26 775.81,-126.82 773.43,-118.08"/>
<polygon fill="black" stroke="black" points="776.767,-117.014 770.77,-108.28 770.012,-118.848 776.767,-117.014"/>
</g>
<!-- 53 -->
<g id="node21" class="node"><title>53</title>
<ellipse fill="none" stroke="black" cx="868.08" cy="-162" rx="32" ry="18"/>
<text text-anchor="middle" x="868.08" y="-163.6" font-family="Times,serif" font-size="8.00">FragGene</text>
<text text-anchor="middle" x="868.08" y="-155.6" font-family="Times,serif" font-size="8.00">SplitMap</text>
</g>
<!-- 53&#45;&gt;54 -->
<g id="edge21" class="edge"><title>53&#45;&gt;54</title>
<path fill="none" stroke="black" d="M848.42,-147.5C833.04,-136.95 811.45,-122.13 794.23,-110.32"/>
<polygon fill="black" stroke="black" points="795.916,-107.232 785.69,-104.46 791.955,-113.004 795.916,-107.232"/>
</g>
<!-- 56 -->
<g id="node22" class="node"><title>56</title>
<ellipse fill="none" stroke="black" cx="844.08" cy="-234" rx="41.2808" ry="18"/>
<text text-anchor="middle" x="844.08" y="-235.6" font-family="Times,serif" font-size="8.00">PreProcessing</text>
<text text-anchor="middle" x="844.08" y="-227.6" font-family="Times,serif" font-size="8.00">Map</text>
</g>
<!-- 16 -->
<g id="node23" class="node"><title>16</title>
<ellipse fill="none" stroke="black" cx="744.08" cy="-234" rx="41.2808" ry="18"/>
<text text-anchor="middle" x="744.08" y="-235.6" font-family="Times,serif" font-size="8.00">PreProcessing</text>
<text text-anchor="middle" x="744.08" y="-227.6" font-family="Times,serif" font-size="8.00">Map</text>
</g>
<!-- 16&#45;&gt;48 -->
<g id="edge22" class="edge"><title>16&#45;&gt;48</title>
<path fill="none" stroke="black" d="M714.32,-221.52C696.32,-212.93 674.67,-199.31 663.08,-180 652,-161.54 650.59,-136.94 651.61,-118.29"/>
<polygon fill="black" stroke="black" points="655.118,-118.331 652.44,-108.08 648.141,-117.763 655.118,-118.331"/>
</g>
<!-- 16&#45;&gt;51 -->
<g id="edge23" class="edge"><title>16&#45;&gt;51</title>
<path fill="none" stroke="black" d="M734.37,-216.41C729.46,-208.04 723.41,-197.71 717.94,-188.37"/>
<polygon fill="black" stroke="black" points="720.803,-186.332 712.73,-179.47 714.761,-189.868 720.803,-186.332"/>
</g>
<!-- 16&#45;&gt;52 -->
<g id="edge24" class="edge"><title>16&#45;&gt;52</title>
<path fill="none" stroke="black" d="M753.8,-216.41C758.7,-208.04 764.75,-197.71 770.22,-188.37"/>
<polygon fill="black" stroke="black" points="773.4,-189.867 775.44,-179.47 767.362,-186.325 773.4,-189.867"/>
</g>
<!-- 16&#45;&gt;53 -->
<g id="edge25" class="edge"><title>16&#45;&gt;53</title>
<path fill="none" stroke="black" d="M768.29,-219.34C788.05,-208.18 816.11,-192.34 837.45,-180.29"/>
<polygon fill="black" stroke="black" points="839.443,-183.184 846.43,-175.22 836.001,-177.089 839.443,-183.184"/>
</g>
</g>
</svg>
