<?xml version="1.0" encoding="UTF-8" standalone="no"?>
<!DOCTYPE svg PUBLIC "-//W3C//DTD SVG 1.1//EN"
 "http://www.w3.org/Graphics/SVG/1.1/DTD/svg11.dtd">
<!-- Generated by graphviz version 2.38.0 (20140413.2041)
 -->
<!-- Title: %3 Pages: 1 -->
<svg width="776pt" height="314pt"
 viewBox="0.00 0.00 776.00 314.00" xmlns="http://www.w3.org/2000/svg" xmlns:xlink="http://www.w3.org/1999/xlink">
<g id="graph0" class="graph" transform="scale(1 1) rotate(0) translate(4 310)">
<title>%3</title>
<polygon fill="white" stroke="none" points="-4,4 -4,-310 772,-310 772,4 -4,4"/>
<g id="clust1" class="cluster"><title>cluster_1</title>
<polygon fill="none" stroke="black" points="8,-8 8,-298 338,-298 338,-8 8,-8"/>
<text text-anchor="middle" x="173" y="-282.8" font-family="Times,serif" font-size="14.00">Parallel</text>
</g>
<g id="clust2" class="cluster"><title>cluster_2</title>
<polygon fill="none" stroke="black" points="346,-8 346,-298 760,-298 760,-8 346,-8"/>
<text text-anchor="middle" x="553" y="-282.8" font-family="Times,serif" font-size="14.00">Split</text>
</g>
<!-- 1 -->
<g id="node1" class="node"><title>1</title>
<ellipse fill="none" stroke="black" cx="215" cy="-250" rx="41.2808" ry="18"/>
<text text-anchor="middle" x="215" y="-251.6" font-family="Times,serif" font-size="8.00">PreProcessing</text>
<text text-anchor="middle" x="215" y="-243.6" font-family="Times,serif" font-size="8.00">&lt;&lt;Map&gt;&gt;</text>
</g>
<!-- 2 -->
<g id="node2" class="node"><title>2</title>
<ellipse fill="none" stroke="black" cx="59" cy="-178" rx="42.6352" ry="18"/>
<text text-anchor="middle" x="59" y="-179.6" font-family="Times,serif" font-size="8.00">Prodigal</text>
<text text-anchor="middle" x="59" y="-171.6" font-family="Times,serif" font-size="8.00">&lt;&lt;SplitMap&gt;&gt;</text>
</g>
<!-- 1&#45;&gt;2 -->
<g id="edge1" class="edge"><title>1&#45;&gt;2</title>
<path fill="none" stroke="black" d="M187.11,-236.485C161.867,-225.158 124.48,-208.382 96.6027,-195.873"/>
<polygon fill="black" stroke="black" points="97.7307,-192.543 87.1742,-191.642 94.8649,-198.929 97.7307,-192.543"/>
</g>
<!-- 3 -->
<g id="node3" class="node"><title>3</title>
<ellipse fill="none" stroke="black" cx="163" cy="-178" rx="42.6352" ry="18"/>
<text text-anchor="middle" x="163" y="-179.6" font-family="Times,serif" font-size="8.00">MetaGene</text>
<text text-anchor="middle" x="163" y="-171.6" font-family="Times,serif" font-size="8.00">&lt;&lt;SplitMap&gt;&gt;</text>
</g>
<!-- 1&#45;&gt;3 -->
<g id="edge2" class="edge"><title>1&#45;&gt;3</title>
<path fill="none" stroke="black" d="M202.939,-232.765C196.535,-224.143 188.528,-213.365 181.368,-203.727"/>
<polygon fill="black" stroke="black" points="184.129,-201.574 175.356,-195.633 178.51,-205.748 184.129,-201.574"/>
</g>
<!-- 4 -->
<g id="node4" class="node"><title>4</title>
<ellipse fill="none" stroke="black" cx="267" cy="-178" rx="42.6352" ry="18"/>
<text text-anchor="middle" x="267" y="-179.6" font-family="Times,serif" font-size="8.00">FragGene</text>
<text text-anchor="middle" x="267" y="-171.6" font-family="Times,serif" font-size="8.00">&lt;&lt;SplitMap&gt;&gt;</text>
</g>
<!-- 1&#45;&gt;4 -->
<g id="edge3" class="edge"><title>1&#45;&gt;4</title>
<path fill="none" stroke="black" d="M227.061,-232.765C233.465,-224.143 241.472,-213.365 248.632,-203.727"/>
<polygon fill="black" stroke="black" points="251.49,-205.748 254.644,-195.633 245.871,-201.574 251.49,-205.748"/>
</g>
<!-- 5 -->
<g id="node5" class="node"><title>5</title>
<ellipse fill="none" stroke="black" cx="282" cy="-106" rx="42.6352" ry="18"/>
<text text-anchor="middle" x="282" y="-107.6" font-family="Times,serif" font-size="8.00">Blast</text>
<text text-anchor="middle" x="282" y="-99.6" font-family="Times,serif" font-size="8.00">&lt;&lt;SplitMap&gt;&gt;</text>
</g>
<!-- 1&#45;&gt;5 -->
<g id="edge4" class="edge"><title>1&#45;&gt;5</title>
<path fill="none" stroke="black" d="M250.835,-241.037C274.675,-233.677 304.23,-220.104 319,-196 331.737,-175.213 317.994,-149.262 303.785,-130.756"/>
<polygon fill="black" stroke="black" points="306.349,-128.362 297.317,-122.822 300.923,-132.785 306.349,-128.362"/>
</g>
<!-- 6 -->
<g id="node6" class="node"><title>6</title>
<ellipse fill="none" stroke="black" cx="168" cy="-106" rx="44.7036" ry="18"/>
<text text-anchor="middle" x="168" y="-107.6" font-family="Times,serif" font-size="8.00">Filter1</text>
<text text-anchor="middle" x="168" y="-99.6" font-family="Times,serif" font-size="8.00">&lt;&lt;MRQuery&gt;&gt;</text>
</g>
<!-- 2&#45;&gt;6 -->
<g id="edge6" class="edge"><title>2&#45;&gt;6</title>
<path fill="none" stroke="black" d="M81.5849,-162.496C97.4089,-152.334 118.775,-138.612 136.303,-127.356"/>
<polygon fill="black" stroke="black" points="138.546,-130.075 145.069,-121.726 134.763,-124.185 138.546,-130.075"/>
</g>
<!-- 3&#45;&gt;6 -->
<g id="edge7" class="edge"><title>3&#45;&gt;6</title>
<path fill="none" stroke="black" d="M164.236,-159.697C164.787,-151.983 165.449,-142.712 166.063,-134.112"/>
<polygon fill="black" stroke="black" points="169.557,-134.328 166.778,-124.104 162.575,-133.83 169.557,-134.328"/>
</g>
<!-- 4&#45;&gt;6 -->
<g id="edge8" class="edge"><title>4&#45;&gt;6</title>
<path fill="none" stroke="black" d="M246.005,-162.155C231.925,-152.199 213.178,-138.944 197.591,-127.923"/>
<polygon fill="black" stroke="black" points="199.492,-124.981 189.306,-122.065 195.451,-130.696 199.492,-124.981"/>
</g>
<!-- 7 -->
<g id="node7" class="node"><title>7</title>
<ellipse fill="none" stroke="black" cx="225" cy="-34" rx="44.7036" ry="18"/>
<text text-anchor="middle" x="225" y="-35.6" font-family="Times,serif" font-size="8.00">Filter2</text>
<text text-anchor="middle" x="225" y="-27.6" font-family="Times,serif" font-size="8.00">&lt;&lt;MRQuery&gt;&gt;</text>
</g>
<!-- 5&#45;&gt;7 -->
<g id="edge5" class="edge"><title>5&#45;&gt;7</title>
<path fill="none" stroke="black" d="M268.78,-88.7646C261.688,-80.056 252.805,-69.1467 244.897,-59.435"/>
<polygon fill="black" stroke="black" points="247.573,-57.1778 238.544,-51.6334 242.145,-61.5978 247.573,-57.1778"/>
</g>
<!-- 6&#45;&gt;7 -->
<g id="edge9" class="edge"><title>6&#45;&gt;7</title>
<path fill="none" stroke="black" d="M181.22,-88.7646C188.312,-80.056 197.195,-69.1467 205.103,-59.435"/>
<polygon fill="black" stroke="black" points="207.855,-61.5978 211.456,-51.6334 202.427,-57.1778 207.855,-61.5978"/>
</g>
<!-- 8 -->
<g id="node8" class="node"><title>8</title>
<ellipse fill="none" stroke="black" cx="553" cy="-250" rx="41.2808" ry="18"/>
<text text-anchor="middle" x="553" y="-251.6" font-family="Times,serif" font-size="8.00">PreProcessing</text>
<text text-anchor="middle" x="553" y="-243.6" font-family="Times,serif" font-size="8.00">&lt;&lt;Map&gt;&gt;</text>
</g>
<!-- 9 -->
<g id="node9" class="node"><title>9</title>
<ellipse fill="none" stroke="black" cx="397" cy="-178" rx="42.6352" ry="18"/>
<text text-anchor="middle" x="397" y="-179.6" font-family="Times,serif" font-size="8.00">FastaSplit</text>
<text text-anchor="middle" x="397" y="-171.6" font-family="Times,serif" font-size="8.00">&lt;&lt;SplitMap&gt;&gt;</text>
</g>
<!-- 8&#45;&gt;9 -->
<g id="edge10" class="edge"><title>8&#45;&gt;9</title>
<path fill="none" stroke="black" d="M525.11,-236.485C499.867,-225.158 462.48,-208.382 434.603,-195.873"/>
<polygon fill="black" stroke="black" points="435.731,-192.543 425.174,-191.642 432.865,-198.929 435.731,-192.543"/>
</g>
<!-- 10 -->
<g id="node10" class="node"><title>10</title>
<ellipse fill="none" stroke="black" cx="501" cy="-178" rx="42.6352" ry="18"/>
<text text-anchor="middle" x="501" y="-179.6" font-family="Times,serif" font-size="8.00">Prodigal</text>
<text text-anchor="middle" x="501" y="-171.6" font-family="Times,serif" font-size="8.00">&lt;&lt;SplitMap&gt;&gt;</text>
</g>
<!-- 8&#45;&gt;10 -->
<g id="edge12" class="edge"><title>8&#45;&gt;10</title>
<path fill="none" stroke="black" d="M540.939,-232.765C534.535,-224.143 526.528,-213.365 519.368,-203.727"/>
<polygon fill="black" stroke="black" points="522.129,-201.574 513.356,-195.633 516.51,-205.748 522.129,-201.574"/>
</g>
<!-- 11 -->
<g id="node11" class="node"><title>11</title>
<ellipse fill="none" stroke="black" cx="605" cy="-178" rx="42.6352" ry="18"/>
<text text-anchor="middle" x="605" y="-179.6" font-family="Times,serif" font-size="8.00">MetaGene</text>
<text text-anchor="middle" x="605" y="-171.6" font-family="Times,serif" font-size="8.00">&lt;&lt;SplitMap&gt;&gt;</text>
</g>
<!-- 8&#45;&gt;11 -->
<g id="edge13" class="edge"><title>8&#45;&gt;11</title>
<path fill="none" stroke="black" d="M565.061,-232.765C571.465,-224.143 579.472,-213.365 586.632,-203.727"/>
<polygon fill="black" stroke="black" points="589.49,-205.748 592.644,-195.633 583.871,-201.574 589.49,-205.748"/>
</g>
<!-- 12 -->
<g id="node12" class="node"><title>12</title>
<ellipse fill="none" stroke="black" cx="709" cy="-178" rx="42.6352" ry="18"/>
<text text-anchor="middle" x="709" y="-179.6" font-family="Times,serif" font-size="8.00">FragGene</text>
<text text-anchor="middle" x="709" y="-171.6" font-family="Times,serif" font-size="8.00">&lt;&lt;SplitMap&gt;&gt;</text>
</g>
<!-- 8&#45;&gt;12 -->
<g id="edge14" class="edge"><title>8&#45;&gt;12</title>
<path fill="none" stroke="black" d="M580.89,-236.485C606.133,-225.158 643.52,-208.382 671.397,-195.873"/>
<polygon fill="black" stroke="black" points="673.135,-198.929 680.826,-191.642 670.269,-192.543 673.135,-198.929"/>
</g>
<!-- 13 -->
<g id="node13" class="node"><title>13</title>
<ellipse fill="none" stroke="black" cx="398" cy="-106" rx="42.6352" ry="18"/>
<text text-anchor="middle" x="398" y="-107.6" font-family="Times,serif" font-size="8.00">Blast</text>
<text text-anchor="middle" x="398" y="-99.6" font-family="Times,serif" font-size="8.00">&lt;&lt;SplitMap&gt;&gt;</text>
</g>
<!-- 9&#45;&gt;13 -->
<g id="edge11" class="edge"><title>9&#45;&gt;13</title>
<path fill="none" stroke="black" d="M397.247,-159.697C397.357,-151.983 397.49,-142.712 397.613,-134.112"/>
<polygon fill="black" stroke="black" points="401.112,-134.153 397.756,-124.104 394.113,-134.053 401.112,-134.153"/>
</g>
<!-- 14 -->
<g id="node14" class="node"><title>14</title>
<ellipse fill="none" stroke="black" cx="554" cy="-106" rx="44.7036" ry="18"/>
<text text-anchor="middle" x="554" y="-107.6" font-family="Times,serif" font-size="8.00">Filter1</text>
<text text-anchor="middle" x="554" y="-99.6" font-family="Times,serif" font-size="8.00">&lt;&lt;MRQuery&gt;&gt;</text>
</g>
<!-- 10&#45;&gt;14 -->
<g id="edge16" class="edge"><title>10&#45;&gt;14</title>
<path fill="none" stroke="black" d="M513.56,-160.411C520.095,-151.781 528.21,-141.062 535.452,-131.497"/>
<polygon fill="black" stroke="black" points="538.284,-133.555 541.53,-123.47 532.703,-129.33 538.284,-133.555"/>
</g>
<!-- 11&#45;&gt;14 -->
<g id="edge17" class="edge"><title>11&#45;&gt;14</title>
<path fill="none" stroke="black" d="M592.914,-160.411C586.689,-151.868 578.974,-141.278 572.059,-131.787"/>
<polygon fill="black" stroke="black" points="574.717,-129.491 566,-123.47 569.059,-133.613 574.717,-129.491"/>
</g>
<!-- 12&#45;&gt;14 -->
<g id="edge18" class="edge"><title>12&#45;&gt;14</title>
<path fill="none" stroke="black" d="M680.931,-164.324C656.036,-153.081 619.463,-136.564 591.963,-124.144"/>
<polygon fill="black" stroke="black" points="593.202,-120.864 582.647,-119.938 590.321,-127.243 593.202,-120.864"/>
</g>
<!-- 15 -->
<g id="node15" class="node"><title>15</title>
<ellipse fill="none" stroke="black" cx="476" cy="-34" rx="44.7036" ry="18"/>
<text text-anchor="middle" x="476" y="-35.6" font-family="Times,serif" font-size="8.00">Filter2</text>
<text text-anchor="middle" x="476" y="-27.6" font-family="Times,serif" font-size="8.00">&lt;&lt;MRQuery&gt;&gt;</text>
</g>
<!-- 13&#45;&gt;15 -->
<g id="edge15" class="edge"><title>13&#45;&gt;15</title>
<path fill="none" stroke="black" d="M415.311,-89.4647C425.74,-80.105 439.204,-68.0223 450.799,-57.6162"/>
<polygon fill="black" stroke="black" points="453.363,-60.0179 458.468,-50.7339 448.688,-54.8082 453.363,-60.0179"/>
</g>
<!-- 14&#45;&gt;15 -->
<g id="edge19" class="edge"><title>14&#45;&gt;15</title>
<path fill="none" stroke="black" d="M536.301,-89.1159C525.929,-79.808 512.658,-67.8981 501.208,-57.6222"/>
<polygon fill="black" stroke="black" points="503.41,-54.8955 493.629,-50.8212 498.734,-60.1052 503.41,-54.8955"/>
</g>
</g>
</svg>
