<?xml version="1.0" encoding="UTF-8" standalone="no"?>
<!DOCTYPE svg PUBLIC "-//W3C//DTD SVG 1.1//EN"
 "http://www.w3.org/Graphics/SVG/1.1/DTD/svg11.dtd">
<!-- Generated by graphviz version 2.38.0 (20140413.2041)
 -->
<!-- Title: %3 Pages: 1 -->
<svg width="208pt" height="276pt"
 viewBox="0.00 0.00 208.34 276.00" xmlns="http://www.w3.org/2000/svg" xmlns:xlink="http://www.w3.org/1999/xlink">
<g id="graph0" class="graph" transform="scale(1 1) rotate(0) translate(5.9372 272)">
<title>%3</title>
<polygon fill="white" stroke="none" points="-5.9372,4 -5.9372,-272 202.4,-272 202.4,4 -5.9372,4"/>
<!-- 1 -->
<g id="node1" class="node"><title>1</title>
<g id="a_node1"><a xlink:href="javascript:openForm(1);" xlink:title="click to manage this activity PreProcessing">
<ellipse fill="none" stroke="black" cx="45.404" cy="-250" rx="35.3216" ry="18"/>
<text text-anchor="middle" x="45.404" y="-251.4" font-family="Times,serif" font-size="7.00">PreProcessing</text>
<text text-anchor="middle" x="45.404" y="-244.4" font-family="Times,serif" font-size="7.00">Map</text>
</a>
</g>
</g>
<!-- 2 -->
<g id="node2" class="node"><title>2</title>
<g id="a_node2"><a xlink:href="javascript:openForm(2);" xlink:title="click to manage this activity HomologySearch">
<ellipse fill="none" stroke="black" cx="42.404" cy="-90" rx="41.105" ry="18"/>
<text text-anchor="middle" x="42.404" y="-91.4" font-family="Times,serif" font-size="7.00">HomologySearch</text>
<text text-anchor="middle" x="42.404" y="-84.4" font-family="Times,serif" font-size="7.00">SplitMap</text>
</a>
</g>
</g>
<!-- 1&#45;&gt;2 -->
<g id="edge1" class="edge"><title>1&#45;&gt;2</title>
<path fill="none" stroke="black" stroke-dasharray="5,2" d="M29.333,-233.45C20.405,-223.66 10.165,-210.21 5.4042,-196 -1.9372,-174.09 -1.5299,-166.05 5.4042,-144 8.6365,-133.72 14.648,-123.7 20.899,-115.19"/>
<polygon fill="black" stroke="black" points="23.7295,-117.252 27.136,-107.22 18.2168,-112.938 23.7295,-117.252"/>
</g>
<!-- 3 -->
<g id="node3" class="node"><title>3</title>
<g id="a_node3"><a xlink:href="javascript:openForm(3);" xlink:title="click to manage this activity InitialPrediction">
<polygon fill="none" stroke="black" points="194.4,-159.23 194.4,-180.77 165.111,-196 123.689,-196 94.4,-180.77 94.4,-159.23 123.689,-144 165.111,-144 194.4,-159.23"/>
<polygon fill="none" stroke="black" points="198.4,-156.802 198.4,-183.198 166.089,-200 122.711,-200 90.4,-183.198 90.4,-156.802 122.711,-140 166.089,-140 198.4,-156.802"/>
<text text-anchor="middle" x="144.4" y="-171.4" font-family="Times,serif" font-size="7.00">InitialPrediction</text>
<text text-anchor="middle" x="144.4" y="-164.4" font-family="Times,serif" font-size="7.00">SplitMap</text>
</a>
</g>
</g>
<!-- 1&#45;&gt;3 -->
<g id="edge2" class="edge"><title>1&#45;&gt;3</title>
<path fill="none" stroke="black" d="M64.025,-234.33C76.596,-224.42 93.592,-211.03 108.72,-199.12"/>
<polygon fill="black" stroke="black" points="111.203,-201.619 116.89,-192.68 106.87,-196.122 111.203,-201.619"/>
</g>
<!-- 6 -->
<g id="node4" class="node"><title>6</title>
<g id="a_node4"><a xlink:href="javascript:openForm(6);" xlink:title="click to manage this activity FastaSplit">
<polygon fill="none" stroke="black" stroke-dasharray="5,2" points="48.5103,-152.049 50.5669,-152.148 52.6022,-152.295 54.608,-152.491 56.576,-152.735 58.4985,-153.027 60.3678,-153.364 62.1766,-153.748 63.9181,-154.176 65.5858,-154.647 67.1737,-155.161 68.6763,-155.715 70.0885,-156.308 71.4059,-156.939 72.6246,-157.605 73.7413,-158.306 74.7531,-159.039 75.6579,-159.801 76.4542,-160.592 77.1408,-161.408 77.7175,-162.248 78.1842,-163.109 78.5416,-163.989 78.7908,-164.886 78.9336,-165.797 78.9721,-166.719 78.9086,-167.65 78.7462,-168.587 78.4882,-169.529 78.138,-170.471 77.6995,-171.413 77.1768,-172.35 76.5741,-173.281 75.8959,-174.203 75.1465,-175.114 74.3306,-176.011 73.4527,-176.891 72.5174,-177.752 71.5291,-178.592 70.4923,-179.408 69.4111,-180.199 68.2899,-180.961 67.1324,-181.694 65.9426,-182.395 64.7238,-183.061 63.4796,-183.692 62.213,-184.285 60.9269,-184.839 59.6239,-185.353 58.3064,-185.824 56.9765,-186.252 55.6364,-186.636 54.2876,-186.973 52.9317,-187.265 51.5702,-187.509 50.2043,-187.705 48.8351,-187.852 47.4635,-187.951 46.0907,-188 44.7173,-188 43.3445,-187.951 41.9729,-187.852 40.6037,-187.705 39.2378,-187.509 37.8763,-187.265 36.5204,-186.973 35.1716,-186.636 33.8315,-186.252 32.5016,-185.824 31.1841,-185.353 29.8811,-184.839 28.595,-184.285 27.3284,-183.692 26.0842,-183.061 24.8654,-182.395 23.6756,-181.694 22.5181,-180.961 21.3969,-180.199 20.3157,-179.408 19.2789,-178.592 18.2906,-177.752 17.3553,-176.891 16.4774,-176.011 15.6615,-175.114 14.9121,-174.203 14.2339,-173.281 13.6312,-172.35 13.1085,-171.413 12.67,-170.471 12.3198,-169.529 12.0618,-168.587 11.8994,-167.65 11.8359,-166.719 11.8744,-165.797 12.0172,-164.886 12.2664,-163.989 12.6238,-163.109 13.0905,-162.248 13.6672,-161.408 14.3538,-160.592 15.1501,-159.801 16.0549,-159.039 17.0667,-158.306 18.1834,-157.605 19.4021,-156.939 20.7195,-156.308 22.1317,-155.715 23.6343,-155.161 25.2222,-154.647 26.8899,-154.176 28.6314,-153.748 30.4402,-153.364 32.3095,-153.027 34.232,-152.735 36.2,-152.491 38.2058,-152.295 40.2411,-152.148 42.2977,-152.049 44.3671,-152 46.4409,-152 48.5103,-152.049"/>
<text text-anchor="middle" x="45.404" y="-171.4" font-family="Times,serif" font-size="7.00">FastaSplit</text>
<text text-anchor="middle" x="45.404" y="-164.4" font-family="Times,serif" font-size="7.00">SplitMap</text>
</a>
</g>
</g>
<!-- 1&#45;&gt;6 -->
<g id="edge3" class="edge"><title>1&#45;&gt;6</title>
<path fill="none" stroke="black" stroke-dasharray="5,2" d="M45.404,-231.69C45.404,-221.89 45.404,-209.42 45.404,-198.33"/>
<polygon fill="black" stroke="black" points="48.9041,-198.26 45.404,-188.26 41.9041,-198.26 48.9041,-198.26"/>
</g>
<!-- 5 -->
<g id="node5" class="node"><title>5</title>
<g id="a_node5"><a xlink:href="javascript:openForm(5);" xlink:title="click to manage this activity FinalList">
<ellipse fill="none" stroke="black" cx="93.404" cy="-18" rx="27" ry="18"/>
<text text-anchor="middle" x="93.404" y="-19.4" font-family="Times,serif" font-size="7.00">FinalList</text>
<text text-anchor="middle" x="93.404" y="-12.4" font-family="Times,serif" font-size="7.00">Query</text>
</a>
</g>
</g>
<!-- 2&#45;&gt;5 -->
<g id="edge4" class="edge"><title>2&#45;&gt;5</title>
<path fill="none" stroke="black" d="M54.491,-72.411C60.961,-63.53 69.041,-52.439 76.16,-42.668"/>
<polygon fill="black" stroke="black" points="79.0432,-44.6544 82.103,-34.511 73.3855,-40.5323 79.0432,-44.6544"/>
</g>
<!-- 4 -->
<g id="node6" class="node"><title>4</title>
<g id="a_node6"><a xlink:href="javascript:openForm(4);" xlink:title="click to manage this activity Consensus Output">
<ellipse fill="none" stroke="black" cx="144.4" cy="-90" rx="42.5" ry="18"/>
<text text-anchor="middle" x="144.4" y="-91.4" font-family="Times,serif" font-size="7.00">Consensus Output</text>
<text text-anchor="middle" x="144.4" y="-84.4" font-family="Times,serif" font-size="7.00">Query</text>
</a>
</g>
</g>
<!-- 3&#45;&gt;4 -->
<g id="edge5" class="edge"><title>3&#45;&gt;4</title>
<path fill="none" stroke="black" d="M144.4,-143.89C144.4,-135.84 144.4,-126.88 144.4,-118.66"/>
<polygon fill="black" stroke="black" points="147.9,-118.41 144.4,-108.41 140.9,-118.41 147.9,-118.41"/>
</g>
<!-- 6&#45;&gt;2 -->
<g id="edge6" class="edge"><title>6&#45;&gt;2</title>
<path fill="none" stroke="black" stroke-dasharray="5,2" d="M44.738,-151.69C44.362,-141.89 43.882,-129.42 43.456,-118.33"/>
<polygon fill="black" stroke="black" points="46.9505,-118.118 43.068,-108.26 39.9557,-118.387 46.9505,-118.118"/>
</g>
<!-- 4&#45;&gt;5 -->
<g id="edge7" class="edge"><title>4&#45;&gt;5</title>
<path fill="none" stroke="black" d="M132.32,-72.411C125.85,-63.53 117.77,-52.439 110.65,-42.668"/>
<polygon fill="black" stroke="black" points="113.421,-40.5275 104.7,-34.511 107.766,-44.6527 113.421,-40.5275"/>
</g>
</g>
</svg>
