<?xml version="1.0" encoding="UTF-8" standalone="no"?>
<!DOCTYPE svg PUBLIC "-//W3C//DTD SVG 1.1//EN"
 "http://www.w3.org/Graphics/SVG/1.1/DTD/svg11.dtd">
<!-- Generated by graphviz version 2.38.0 (20140413.2041)
 -->
<!-- Title: %3 Pages: 1 -->
<svg width="230pt" height="340pt"
 viewBox="0.00 0.00 229.66 340.00" xmlns="http://www.w3.org/2000/svg" xmlns:xlink="http://www.w3.org/1999/xlink">
<g id="graph0" class="graph" transform="scale(1 1) rotate(0) translate(4 336)">
<title>%3</title>
<polygon fill="white" stroke="none" points="-4,4 -4,-336 225.657,-336 225.657,4 -4,4"/>
<!-- ELA_1 -->
<g id="node1" class="node"><title>ELA_1</title>
<g id="a_node1"><a xlink:href="/addline/editAbstractWkf/1/" xlink:title="click to edit this activity 1">
<ellipse fill="none" stroke="black" cx="94.2912" cy="-314" rx="41.2808" ry="18"/>
<text text-anchor="middle" x="94.2912" y="-315.6" font-family="Times,serif" font-size="8.00">PreProcessing</text>
<text text-anchor="middle" x="94.2912" y="-307.6" font-family="Times,serif" font-size="8.00">&lt;&lt;Map&gt;&gt;</text>
</a>
</g>
</g>
<!-- ELA_2 -->
<g id="node2" class="node"><title>ELA_2</title>
<g id="a_node2"><a xlink:href="/addline/editAbstractWkf/2/" xlink:title="click to edit this activity 2">
<ellipse fill="none" stroke="black" cx="48.2912" cy="-166" rx="48.0833" ry="18"/>
<text text-anchor="middle" x="48.2912" y="-167.6" font-family="Times,serif" font-size="8.00">HomologySearch</text>
<text text-anchor="middle" x="48.2912" y="-159.6" font-family="Times,serif" font-size="8.00">&lt;&lt;SplitMap&gt;&gt;</text>
</a>
</g>
</g>
<!-- ELA_1&#45;&gt;ELA_2 -->
<g id="edge1" class="edge"><title>ELA_1&#45;&gt;ELA_2</title>
<path fill="none" stroke="black" stroke-dasharray="5,2" d="M72.3369,-298.651C60.113,-289.284 46.0353,-275.865 39.2912,-260 30.3078,-238.868 34.0113,-212.67 39.1177,-193.47"/>
<polygon fill="black" stroke="black" points="42.4784,-194.447 41.9414,-183.866 35.7627,-192.473 42.4784,-194.447"/>
</g>
<!-- ELA_3 -->
<g id="node3" class="node"><title>ELA_3</title>
<g id="a_node3"><a xlink:href="/addline/editAbstractWkf/3/" xlink:title="click to edit this activity 3">
<polygon fill="none" stroke="black" points="217.533,-158.544 217.533,-173.456 188.688,-184 147.895,-184 119.05,-173.456 119.05,-158.544 147.895,-148 188.688,-148 217.533,-158.544"/>
<polygon fill="none" stroke="black" points="221.523,-155.745 221.523,-176.255 189.393,-188 147.19,-188 115.06,-176.255 115.06,-155.745 147.19,-144 189.393,-144 221.523,-155.745"/>
<text text-anchor="middle" x="168.291" y="-167.6" font-family="Times,serif" font-size="8.00">InitialPrediction</text>
<text text-anchor="middle" x="168.291" y="-159.6" font-family="Times,serif" font-size="8.00">&lt;&lt;SplitMap&gt;&gt;</text>
</a>
</g>
</g>
<!-- ELA_1&#45;&gt;ELA_3 -->
<g id="edge2" class="edge"><title>ELA_1&#45;&gt;ELA_3</title>
<path fill="none" stroke="black" d="M114.838,-298.319C126.716,-288.744 140.922,-275.222 149.291,-260 159.694,-241.081 164.425,-217.168 166.566,-198.328"/>
<polygon fill="black" stroke="black" points="170.069,-198.459 167.529,-188.173 163.1,-197.798 170.069,-198.459"/>
</g>
<!-- ELA_6 -->
<g id="node6" class="node"><title>ELA_6</title>
<g id="a_node6"><a xlink:href="/addline/editAbstractWkf/6/" xlink:title="click to edit this activity 6">
<polygon fill="none" stroke="black" stroke-dasharray="5,2" points="98.5197,-224.049 101.319,-224.148 104.09,-224.295 106.82,-224.491 109.499,-224.735 112.116,-225.027 114.661,-225.364 117.123,-225.748 119.494,-226.176 121.764,-226.647 123.926,-227.161 125.971,-227.715 127.894,-228.308 129.687,-228.939 131.346,-229.605 132.866,-230.306 134.243,-231.039 135.475,-231.801 136.559,-232.592 137.494,-233.408 138.279,-234.248 138.914,-235.109 139.401,-235.989 139.74,-236.886 139.934,-237.797 139.987,-238.719 139.9,-239.65 139.679,-240.587 139.328,-241.529 138.851,-242.471 138.254,-243.413 137.543,-244.35 136.722,-245.281 135.799,-246.203 134.779,-247.114 133.668,-248.011 132.473,-248.891 131.2,-249.752 129.855,-250.592 128.443,-251.408 126.972,-252.199 125.445,-252.961 123.87,-253.694 122.25,-254.395 120.591,-255.061 118.897,-255.692 117.173,-256.285 115.422,-256.839 113.648,-257.353 111.855,-257.824 110.045,-258.252 108.22,-258.636 106.384,-258.973 104.539,-259.265 102.685,-259.509 100.826,-259.705 98.9618,-259.852 97.0948,-259.951 95.2259,-260 93.3565,-260 91.4876,-259.951 89.6206,-259.852 87.7567,-259.705 85.8973,-259.509 84.0439,-259.265 82.1982,-258.973 80.3621,-258.636 78.5378,-258.252 76.7275,-257.824 74.934,-257.353 73.1602,-256.839 71.4095,-256.285 69.6853,-255.692 67.9915,-255.061 66.3325,-254.395 64.7128,-253.694 63.1372,-252.961 61.6108,-252.199 60.1391,-251.408 58.7277,-250.592 57.3823,-249.752 56.1091,-248.891 54.914,-248.011 53.8034,-247.114 52.7833,-246.203 51.86,-245.281 51.0396,-244.35 50.3281,-243.413 49.7312,-242.471 49.2545,-241.529 48.9032,-240.587 48.6821,-239.65 48.5958,-238.719 48.6481,-237.797 48.8424,-236.886 49.1818,-235.989 49.6683,-235.109 50.3036,-234.248 51.0885,-233.408 52.0233,-232.592 53.1072,-231.801 54.3389,-231.039 55.7163,-230.306 57.2364,-229.605 58.8954,-228.939 60.6888,-228.308 62.6112,-227.715 64.6566,-227.161 66.8182,-226.647 69.0884,-226.176 71.459,-225.748 73.9213,-225.364 76.4659,-225.027 79.083,-224.735 81.762,-224.491 84.4924,-224.295 87.2631,-224.148 90.0627,-224.049 92.8798,-224 95.7026,-224 98.5197,-224.049"/>
<text text-anchor="middle" x="94.2912" y="-243.6" font-family="Times,serif" font-size="8.00">FastaSplit</text>
<text text-anchor="middle" x="94.2912" y="-235.6" font-family="Times,serif" font-size="8.00">&lt;&lt;SplitMap&gt;&gt;</text>
</a>
</g>
</g>
<!-- ELA_1&#45;&gt;ELA_6 -->
<g id="edge6" class="edge"><title>ELA_1&#45;&gt;ELA_6</title>
<path fill="none" stroke="black" stroke-dasharray="5,2" d="M94.2912,-295.697C94.2912,-287.983 94.2912,-278.712 94.2912,-270.112"/>
<polygon fill="black" stroke="black" points="97.7913,-270.104 94.2912,-260.104 90.7913,-270.104 97.7913,-270.104"/>
</g>
<!-- ELA_4 -->
<g id="node4" class="node"><title>ELA_4</title>
<g id="a_node4"><a xlink:href="/addline/editAbstractWkf/4/" xlink:title="click to edit this activity 4">
<ellipse fill="none" stroke="black" cx="69.2912" cy="-90" rx="49.8842" ry="18"/>
<text text-anchor="middle" x="69.2912" y="-91.6" font-family="Times,serif" font-size="8.00">Consensus Output</text>
<text text-anchor="middle" x="69.2912" y="-83.6" font-family="Times,serif" font-size="8.00">&lt;&lt;MRQuery&gt;&gt;</text>
</a>
</g>
</g>
<!-- ELA_2&#45;&gt;ELA_4 -->
<g id="edge4" class="edge"><title>ELA_2&#45;&gt;ELA_4</title>
<path fill="none" stroke="black" d="M53.1618,-147.837C55.6798,-138.964 58.8109,-127.931 61.6427,-117.952"/>
<polygon fill="black" stroke="black" points="65.084,-118.646 64.447,-108.07 58.3499,-116.735 65.084,-118.646"/>
</g>
<!-- ELA_5 -->
<g id="node5" class="node"><title>ELA_5</title>
<g id="a_node5"><a xlink:href="/addline/editAbstractWkf/5/" xlink:title="click to edit this activity 5">
<ellipse fill="none" stroke="black" cx="113.291" cy="-18" rx="44.7036" ry="18"/>
<text text-anchor="middle" x="113.291" y="-19.6" font-family="Times,serif" font-size="8.00">FinalList</text>
<text text-anchor="middle" x="113.291" y="-11.6" font-family="Times,serif" font-size="8.00">&lt;&lt;MRQuery&gt;&gt;</text>
</a>
</g>
</g>
<!-- ELA_3&#45;&gt;ELA_5 -->
<g id="edge3" class="edge"><title>ELA_3&#45;&gt;ELA_5</title>
<path fill="none" stroke="black" d="M160.294,-143.77C150.529,-117.849 134.005,-73.9866 123.377,-45.7742"/>
<polygon fill="black" stroke="black" points="126.553,-44.2746 119.752,-36.1504 120.002,-46.7423 126.553,-44.2746"/>
</g>
<!-- ELA_4&#45;&gt;ELA_5 -->
<g id="edge5" class="edge"><title>ELA_4&#45;&gt;ELA_5</title>
<path fill="none" stroke="black" d="M79.9424,-72.055C85.1308,-63.8006 91.4789,-53.7014 97.2389,-44.5378"/>
<polygon fill="black" stroke="black" points="100.38,-46.118 102.738,-35.789 94.4531,-42.3928 100.38,-46.118"/>
</g>
<!-- ELA_6&#45;&gt;ELA_2 -->
<g id="edge7" class="edge"><title>ELA_6&#45;&gt;ELA_2</title>
<path fill="none" stroke="black" stroke-dasharray="5,2" d="M83.8531,-224.208C78.0305,-214.842 70.6586,-202.982 64.1383,-192.493"/>
<polygon fill="black" stroke="black" points="66.9399,-190.37 58.688,-183.725 60.9949,-194.066 66.9399,-190.37"/>
</g>
</g>
</svg>
