<?xml version="1.0" encoding="UTF-8" standalone="no"?>
<!DOCTYPE svg PUBLIC "-//W3C//DTD SVG 1.1//EN"
 "http://www.w3.org/Graphics/SVG/1.1/DTD/svg11.dtd">
<!-- Generated by graphviz version 2.38.0 (20140413.2041)
 -->
<!-- Title: %3 Pages: 1 -->
<svg width="200pt" height="268pt"
 viewBox="0.00 0.00 200.05 268.00" xmlns="http://www.w3.org/2000/svg" xmlns:xlink="http://www.w3.org/1999/xlink">
<g id="graph0" class="graph" transform="scale(1 1) rotate(0) translate(4.00047 264)">
<title>%3</title>
<polygon fill="white" stroke="none" points="-4.00047,4 -4.00047,-264 196.05,-264 196.05,4 -4.00047,4"/>
<!-- 1 -->
<g id="node1" class="node"><title>1</title>
<ellipse fill="none" stroke="black" cx="48.052" cy="-242" rx="35.3216" ry="18"/>
<text text-anchor="middle" x="48.052" y="-243.4" font-family="Times,serif" font-size="7.00">PreProcessing</text>
<text text-anchor="middle" x="48.052" y="-236.4" font-family="Times,serif" font-size="7.00">Map</text>
</g>
<!-- 2 -->
<g id="node2" class="node"><title>2</title>
<ellipse fill="none" stroke="black" cx="41.052" cy="-90" rx="41.105" ry="18"/>
<text text-anchor="middle" x="41.052" y="-91.4" font-family="Times,serif" font-size="7.00">HomologySearch</text>
<text text-anchor="middle" x="41.052" y="-84.4" font-family="Times,serif" font-size="7.00">SplitMap</text>
</g>
<!-- 1&#45;&gt;2 -->
<g id="edge1" class="edge"><title>1&#45;&gt;2</title>
<path fill="none" stroke="black" stroke-dasharray="5,2" d="M32.376,-225.38C23.669,-215.56 13.685,-202.11 9.0525,-188 2.9531,-169.42 3.8063,-162.84 9.0525,-144 11.835,-134.01 17.065,-124.02 22.503,-115.45"/>
<polygon fill="black" stroke="black" points="25.4475,-117.344 28.152,-107.1 19.6496,-113.421 25.4475,-117.344"/>
</g>
<!-- 3 -->
<g id="node3" class="node"><title>3</title>
<polygon fill="none" stroke="black" points="188.05,-156.887 188.05,-175.113 161.104,-188 122.996,-188 96.05,-175.113 96.05,-156.887 122.996,-144 161.104,-144 188.05,-156.887"/>
<polygon fill="none" stroke="black" points="192.05,-154.366 192.05,-177.634 162.011,-192 122.089,-192 92.05,-177.634 92.05,-154.366 122.089,-140 162.011,-140 192.05,-154.366"/>
<text text-anchor="middle" x="142.05" y="-167.4" font-family="Times,serif" font-size="7.00">InitialPrediction</text>
<text text-anchor="middle" x="142.05" y="-160.4" font-family="Times,serif" font-size="7.00">SplitMap</text>
</g>
<!-- 1&#45;&gt;3 -->
<g id="edge2" class="edge"><title>1&#45;&gt;3</title>
<path fill="none" stroke="black" d="M66.624,-226.38C78.968,-216.66 95.504,-203.64 109.95,-192.27"/>
<polygon fill="black" stroke="black" points="112.465,-194.744 118.16,-185.81 108.137,-189.243 112.465,-194.744"/>
</g>
<!-- 6 -->
<g id="node4" class="node"><title>6</title>
<polygon fill="none" stroke="black" stroke-dasharray="5,2" points="50.9493,-148.049 52.8676,-148.148 54.766,-148.295 56.6369,-148.491 58.4725,-148.735 60.2657,-149.027 62.0092,-149.364 63.6964,-149.748 65.3207,-150.176 66.8762,-150.647 68.3573,-151.161 69.7588,-151.715 71.076,-152.308 72.3048,-152.939 73.4416,-153.605 74.4831,-154.306 75.4269,-155.039 76.2708,-155.801 77.0135,-156.592 77.654,-157.408 78.1918,-158.248 78.6271,-159.109 78.9605,-159.989 79.193,-160.886 79.3262,-161.797 79.362,-162.719 79.3029,-163.65 79.1514,-164.587 78.9107,-165.529 78.5841,-166.471 78.1751,-167.413 77.6875,-168.35 77.1254,-169.281 76.4928,-170.203 75.7938,-171.114 75.0328,-172.011 74.214,-172.891 73.3416,-173.752 72.4197,-174.592 71.4526,-175.408 70.4442,-176.199 69.3984,-176.961 68.3188,-177.694 67.209,-178.395 66.0723,-179.061 64.9117,-179.692 63.7303,-180.285 62.5307,-180.839 61.3153,-181.353 60.0865,-181.824 58.8461,-182.252 57.5961,-182.636 56.338,-182.973 55.0734,-183.265 53.8034,-183.509 52.5294,-183.705 51.2523,-183.852 49.973,-183.951 48.6925,-184 47.4115,-184 46.131,-183.951 44.8517,-183.852 43.5746,-183.705 42.3006,-183.509 41.0306,-183.265 39.766,-182.973 38.5079,-182.636 37.2579,-182.252 36.0175,-181.824 34.7887,-181.353 33.5733,-180.839 32.3737,-180.285 31.1923,-179.692 30.0317,-179.061 28.895,-178.395 27.7852,-177.694 26.7056,-176.961 25.6598,-176.199 24.6514,-175.408 23.6843,-174.592 22.7624,-173.752 21.89,-172.891 21.0712,-172.011 20.3102,-171.114 19.6112,-170.203 18.9786,-169.281 18.4165,-168.35 17.9289,-167.413 17.5199,-166.471 17.1933,-165.529 16.9526,-164.587 16.8011,-163.65 16.742,-162.719 16.7778,-161.797 16.911,-160.886 17.1435,-159.989 17.4769,-159.109 17.9122,-158.248 18.45,-157.408 19.0905,-156.592 19.8332,-155.801 20.6771,-155.039 21.6209,-154.306 22.6624,-153.605 23.7992,-152.939 25.028,-152.308 26.3452,-151.715 27.7467,-151.161 29.2278,-150.647 30.7833,-150.176 32.4076,-149.748 34.0948,-149.364 35.8383,-149.027 37.6315,-148.735 39.4671,-148.491 41.338,-148.295 43.2364,-148.148 45.1547,-148.049 47.0849,-148 49.0191,-148 50.9493,-148.049"/>
<text text-anchor="middle" x="48.052" y="-167.4" font-family="Times,serif" font-size="7.00">FastaSplit</text>
<text text-anchor="middle" x="48.052" y="-160.4" font-family="Times,serif" font-size="7.00">SplitMap</text>
</g>
<!-- 1&#45;&gt;6 -->
<g id="edge3" class="edge"><title>1&#45;&gt;6</title>
<path fill="none" stroke="black" stroke-dasharray="5,2" d="M48.052,-223.84C48.052,-215.06 48.052,-204.16 48.052,-194.27"/>
<polygon fill="black" stroke="black" points="51.5521,-194.07 48.052,-184.07 44.5521,-194.07 51.5521,-194.07"/>
</g>
<!-- 5 -->
<g id="node5" class="node"><title>5</title>
<ellipse fill="none" stroke="black" cx="91.052" cy="-18" rx="27" ry="18"/>
<text text-anchor="middle" x="91.052" y="-19.4" font-family="Times,serif" font-size="7.00">FinalList</text>
<text text-anchor="middle" x="91.052" y="-12.4" font-family="Times,serif" font-size="7.00">Query</text>
</g>
<!-- 2&#45;&gt;5 -->
<g id="edge4" class="edge"><title>2&#45;&gt;5</title>
<path fill="none" stroke="black" d="M52.902,-72.411C59.245,-63.53 67.167,-52.439 74.146,-42.668"/>
<polygon fill="black" stroke="black" points="77.0082,-44.6826 79.973,-34.511 71.3122,-40.6136 77.0082,-44.6826"/>
</g>
<!-- 4 -->
<g id="node6" class="node"><title>4</title>
<ellipse fill="none" stroke="black" cx="142.05" cy="-90" rx="42.5" ry="18"/>
<text text-anchor="middle" x="142.05" y="-91.4" font-family="Times,serif" font-size="7.00">Consensus Output</text>
<text text-anchor="middle" x="142.05" y="-84.4" font-family="Times,serif" font-size="7.00">Query</text>
</g>
<!-- 3&#45;&gt;4 -->
<g id="edge5" class="edge"><title>3&#45;&gt;4</title>
<path fill="none" stroke="black" d="M142.05,-143.99C142.05,-136.06 142.05,-126.91 142.05,-118.48"/>
<polygon fill="black" stroke="black" points="145.55,-118.31 142.05,-108.31 138.55,-118.31 145.55,-118.31"/>
</g>
<!-- 6&#45;&gt;2 -->
<g id="edge6" class="edge"><title>6&#45;&gt;2</title>
<path fill="none" stroke="black" stroke-dasharray="5,2" d="M46.429,-147.84C45.598,-139.06 44.568,-128.16 43.632,-118.27"/>
<polygon fill="black" stroke="black" points="47.0934,-117.696 42.667,-108.07 40.1245,-118.355 47.0934,-117.696"/>
</g>
<!-- 4&#45;&gt;5 -->
<g id="edge7" class="edge"><title>4&#45;&gt;5</title>
<path fill="none" stroke="black" d="M129.97,-72.411C123.5,-63.53 115.42,-52.439 108.3,-42.668"/>
<polygon fill="black" stroke="black" points="111.071,-40.5275 102.35,-34.511 105.416,-44.6527 111.071,-40.5275"/>
</g>
</g>
</svg>
