<?xml version="1.0" encoding="UTF-8" standalone="no"?>
<!DOCTYPE svg PUBLIC "-//W3C//DTD SVG 1.1//EN"
 "http://www.w3.org/Graphics/SVG/1.1/DTD/svg11.dtd">
<!-- Generated by graphviz version 2.38.0 (20140413.2041)
 -->
<!-- Title: %3 Pages: 1 -->
<svg width="234pt" height="340pt"
 viewBox="0.00 0.00 234.00 340.00" xmlns="http://www.w3.org/2000/svg" xmlns:xlink="http://www.w3.org/1999/xlink">
<g id="graph0" class="graph" transform="scale(1 1) rotate(0) translate(4.209 336)">
<title>%3</title>
<polygon fill="white" stroke="none" points="-4.209,4 -4.209,-336 229.79,-336 229.79,4 -4.209,4"/>
<!-- 1 -->
<g id="node1" class="node"><title>1</title>
<ellipse fill="none" stroke="black" cx="106.29" cy="-314" rx="41.2808" ry="18"/>
<text text-anchor="middle" x="106.29" y="-315.6" font-family="Times,serif" font-size="8.00">PreProcessing</text>
<text text-anchor="middle" x="106.29" y="-307.6" font-family="Times,serif" font-size="8.00">Map</text>
</g>
<!-- 2 -->
<g id="node2" class="node"><title>2</title>
<ellipse fill="none" stroke="black" cx="48.291" cy="-166" rx="48.5" ry="18"/>
<text text-anchor="middle" x="48.291" y="-167.6" font-family="Times,serif" font-size="8.00">HomologySearch</text>
<text text-anchor="middle" x="48.291" y="-159.6" font-family="Times,serif" font-size="8.00">SplitMap</text>
</g>
<!-- 1&#45;&gt;2 -->
<g id="edge1" class="edge"><title>1&#45;&gt;2</title>
<path fill="none" stroke="black" stroke-dasharray="5,2" d="M89.867,-297.34C80.573,-287.51 69.583,-274.06 63.291,-260 53.978,-239.19 50.36,-213.46 48.996,-194.35"/>
<polygon fill="black" stroke="black" points="52.4823,-194.003 48.438,-184.21 45.4928,-194.387 52.4823,-194.003"/>
</g>
<!-- 3 -->
<g id="node3" class="node"><title>3</title>
<polygon fill="none" stroke="black" points="221.79,-156.887 221.79,-175.113 190.45,-188 146.13,-188 114.79,-175.113 114.79,-156.887 146.13,-144 190.45,-144 221.79,-156.887"/>
<polygon fill="none" stroke="black" points="225.79,-154.207 225.79,-177.793 191.241,-192 145.339,-192 110.79,-177.793 110.79,-154.207 145.339,-140 191.241,-140 225.79,-154.207"/>
<text text-anchor="middle" x="168.29" y="-167.6" font-family="Times,serif" font-size="8.00">InitialPrediction</text>
<text text-anchor="middle" x="168.29" y="-159.6" font-family="Times,serif" font-size="8.00">SplitMap</text>
</g>
<!-- 1&#45;&gt;3 -->
<g id="edge2" class="edge"><title>1&#45;&gt;3</title>
<path fill="none" stroke="black" d="M122.5,-297.24C131.72,-287.38 142.71,-273.93 149.29,-260 158.46,-240.61 163.22,-216.89 165.68,-198.26"/>
<polygon fill="black" stroke="black" points="169.169,-198.558 166.85,-188.22 162.216,-197.748 169.169,-198.558"/>
</g>
<!-- 6 -->
<g id="node4" class="node"><title>6</title>
<polygon fill="none" stroke="black" stroke-dasharray="5,2" points="109.71,-224.049 111.974,-224.148 114.215,-224.295 116.423,-224.491 118.59,-224.735 120.706,-225.027 122.764,-225.364 124.756,-225.748 126.673,-226.176 128.509,-226.647 130.257,-227.161 131.912,-227.715 133.466,-228.308 134.917,-228.939 136.259,-229.605 137.488,-230.306 138.602,-231.039 139.598,-231.801 140.475,-232.592 141.231,-233.408 141.866,-234.248 142.379,-235.109 142.773,-235.989 143.047,-236.886 143.205,-237.797 143.247,-238.719 143.177,-239.65 142.998,-240.587 142.714,-241.529 142.329,-242.471 141.846,-243.413 141.27,-244.35 140.607,-245.281 139.86,-246.203 139.035,-247.114 138.137,-248.011 137.17,-248.891 136.141,-249.752 135.053,-250.592 133.911,-251.408 132.721,-252.199 131.486,-252.961 130.212,-253.694 128.902,-254.395 127.56,-255.061 126.19,-255.692 124.796,-256.285 123.38,-256.839 121.945,-257.353 120.495,-257.824 119.031,-258.252 117.555,-258.636 116.07,-258.973 114.578,-259.265 113.079,-259.509 111.575,-259.705 110.067,-259.852 108.557,-259.951 107.046,-260 105.534,-260 104.023,-259.951 102.513,-259.852 101.005,-259.705 99.5013,-259.509 98.0023,-259.265 96.5096,-258.973 95.0246,-258.636 93.5492,-258.252 92.0851,-257.824 90.6346,-257.353 89.2,-256.839 87.784,-256.285 86.3896,-255.692 85.0197,-255.061 83.678,-254.395 82.368,-253.694 81.0937,-252.961 79.8593,-252.199 78.669,-251.408 77.5275,-250.592 76.4394,-249.752 75.4096,-248.891 74.4431,-248.011 73.5448,-247.114 72.7198,-246.203 71.9731,-245.281 71.3096,-244.35 70.7341,-243.413 70.2514,-242.471 69.8659,-241.529 69.5817,-240.587 69.403,-239.65 69.3331,-238.719 69.3754,-237.797 69.5326,-236.886 69.8071,-235.989 70.2006,-235.109 70.7144,-234.248 71.3492,-233.408 72.1052,-232.592 72.9818,-231.801 73.978,-231.039 75.092,-230.306 76.3214,-229.605 77.6631,-228.939 79.1135,-228.308 80.6683,-227.715 82.3226,-227.161 84.0708,-226.647 85.9068,-226.176 87.8241,-225.748 89.8156,-225.364 91.8736,-225.027 93.9901,-224.735 96.1568,-224.491 98.3651,-224.295 100.606,-224.148 102.87,-224.049 105.148,-224 107.432,-224 109.71,-224.049"/>
<text text-anchor="middle" x="106.29" y="-243.6" font-family="Times,serif" font-size="8.00">FastaSplit</text>
<text text-anchor="middle" x="106.29" y="-235.6" font-family="Times,serif" font-size="8.00">SplitMap</text>
</g>
<!-- 1&#45;&gt;6 -->
<g id="edge3" class="edge"><title>1&#45;&gt;6</title>
<path fill="none" stroke="black" stroke-dasharray="5,2" d="M106.29,-295.7C106.29,-287.98 106.29,-278.71 106.29,-270.11"/>
<polygon fill="black" stroke="black" points="109.79,-270.1 106.29,-260.1 102.79,-270.1 109.79,-270.1"/>
</g>
<!-- 4 -->
<g id="node5" class="node"><title>4</title>
<ellipse fill="none" stroke="black" cx="69.291" cy="-90" rx="50" ry="18"/>
<text text-anchor="middle" x="69.291" y="-91.6" font-family="Times,serif" font-size="8.00">Consensus Output</text>
<text text-anchor="middle" x="69.291" y="-83.6" font-family="Times,serif" font-size="8.00">Query</text>
</g>
<!-- 2&#45;&gt;4 -->
<g id="edge4" class="edge"><title>2&#45;&gt;4</title>
<path fill="none" stroke="black" d="M53.162,-147.84C55.68,-138.96 58.811,-127.93 61.643,-117.95"/>
<polygon fill="black" stroke="black" points="65.0837,-118.646 64.447,-108.07 58.3497,-116.734 65.0837,-118.646"/>
</g>
<!-- 5 -->
<g id="node6" class="node"><title>5</title>
<ellipse fill="none" stroke="black" cx="113.29" cy="-18" rx="30.2275" ry="18"/>
<text text-anchor="middle" x="113.29" y="-19.6" font-family="Times,serif" font-size="8.00">FinalList</text>
<text text-anchor="middle" x="113.29" y="-11.6" font-family="Times,serif" font-size="8.00">Query</text>
</g>
<!-- 3&#45;&gt;5 -->
<g id="edge5" class="edge"><title>3&#45;&gt;5</title>
<path fill="none" stroke="black" d="M160.29,-143.77C150.48,-117.71 133.83,-73.509 123.2,-45.316"/>
<polygon fill="black" stroke="black" points="126.386,-43.8441 119.59,-35.716 119.834,-46.308 126.386,-43.8441"/>
</g>
<!-- 6&#45;&gt;2 -->
<g id="edge6" class="edge"><title>6&#45;&gt;2</title>
<path fill="none" stroke="black" stroke-dasharray="5,2" d="M93.419,-224.58C85.76,-214.8 75.9,-202.22 67.351,-191.32"/>
<polygon fill="black" stroke="black" points="70.0509,-189.091 61.127,-183.38 64.5417,-193.409 70.0509,-189.091"/>
</g>
<!-- 4&#45;&gt;5 -->
<g id="edge7" class="edge"><title>4&#45;&gt;5</title>
<path fill="none" stroke="black" d="M79.942,-72.055C85.262,-63.592 91.801,-53.19 97.675,-43.845"/>
<polygon fill="black" stroke="black" points="100.683,-45.6363 103.04,-35.307 94.756,-41.912 100.683,-45.6363"/>
</g>
</g>
</svg>
