<?xml version="1.0" encoding="UTF-8" standalone="no"?>
<!DOCTYPE svg PUBLIC "-//W3C//DTD SVG 1.1//EN"
 "http://www.w3.org/Graphics/SVG/1.1/DTD/svg11.dtd">
<!-- Generated by graphviz version 2.38.0 (20140413.2041)
 -->
<!-- Title: %3 Pages: 1 -->
<svg width="476pt" height="268pt"
 viewBox="0.00 0.00 476.00 268.00" xmlns="http://www.w3.org/2000/svg" xmlns:xlink="http://www.w3.org/1999/xlink">
<g id="graph0" class="graph" transform="scale(1 1) rotate(0) translate(4 264)">
<title>%3</title>
<polygon fill="white" stroke="none" points="-4,4 -4,-264 472,-264 472,4 -4,4"/>
<!-- 75 -->
<g id="node1" class="node"><title>75</title>
<polygon fill="none" stroke="black" points="94,-156.887 94,-175.113 75.8406,-188 50.1594,-188 32,-175.113 32,-156.887 50.1594,-144 75.8406,-144 94,-156.887"/>
<polygon fill="none" stroke="black" points="98,-154.821 98,-177.179 77.1157,-192 48.8843,-192 28,-177.179 28,-154.821 48.8843,-140 77.1157,-140 98,-154.821"/>
<text text-anchor="middle" x="63" y="-167.6" font-family="Times,serif" font-size="8.00">Teste2</text>
<text text-anchor="middle" x="63" y="-159.6" font-family="Times,serif" font-size="8.00">Filter</text>
</g>
<!-- 89 -->
<g id="node2" class="node"><title>89</title>
<ellipse fill="none" stroke="black" cx="27" cy="-90" rx="27" ry="18"/>
<text text-anchor="middle" x="27" y="-91.6" font-family="Times,serif" font-size="8.00">teste</text>
<text text-anchor="middle" x="27" y="-83.6" font-family="Times,serif" font-size="8.00">Map</text>
</g>
<!-- 75&#45;&gt;89 -->
<g id="edge1" class="edge"><title>75&#45;&gt;89</title>
<path fill="none" stroke="black" stroke-width="2" d="M52.78,-143.99C48.628,-135.46 43.792,-125.52 39.437,-116.56"/>
<polygon fill="black" stroke="black" stroke-width="2" points="42.4783,-114.811 34.956,-107.35 36.1838,-117.873 42.4783,-114.811"/>
</g>
<!-- 90 -->
<g id="node3" class="node"><title>90</title>
<ellipse fill="none" stroke="black" cx="99" cy="-90" rx="27" ry="18"/>
<text text-anchor="middle" x="99" y="-91.6" font-family="Times,serif" font-size="8.00">t</text>
<text text-anchor="middle" x="99" y="-83.6" font-family="Times,serif" font-size="8.00">Map</text>
</g>
<!-- 75&#45;&gt;90 -->
<g id="edge2" class="edge"><title>75&#45;&gt;90</title>
<path fill="none" stroke="black" stroke-width="2" d="M73.22,-143.99C77.372,-135.46 82.208,-125.52 86.563,-116.56"/>
<polygon fill="black" stroke="black" stroke-width="2" points="89.8162,-117.873 91.044,-107.35 83.5217,-114.811 89.8162,-117.873"/>
</g>
<!-- 92 -->
<g id="node4" class="node"><title>92</title>
<ellipse fill="none" stroke="black" cx="27" cy="-18" rx="27" ry="18"/>
<text text-anchor="middle" x="27" y="-19.6" font-family="Times,serif" font-size="8.00">a</text>
<text text-anchor="middle" x="27" y="-11.6" font-family="Times,serif" font-size="8.00">Map</text>
</g>
<!-- 89&#45;&gt;92 -->
<g id="edge3" class="edge"><title>89&#45;&gt;92</title>
<path fill="none" stroke="black" d="M27,-71.697C27,-63.983 27,-54.712 27,-46.112"/>
<polygon fill="black" stroke="black" points="30.5001,-46.104 27,-36.104 23.5001,-46.104 30.5001,-46.104"/>
</g>
<!-- 91 -->
<g id="node5" class="node"><title>91</title>
<ellipse fill="none" stroke="black" cx="99" cy="-18" rx="27" ry="18"/>
<text text-anchor="middle" x="99" y="-19.6" font-family="Times,serif" font-size="8.00">m</text>
<text text-anchor="middle" x="99" y="-11.6" font-family="Times,serif" font-size="8.00">Map</text>
</g>
<!-- 90&#45;&gt;91 -->
<g id="edge4" class="edge"><title>90&#45;&gt;91</title>
<path fill="none" stroke="black" d="M99,-71.697C99,-63.983 99,-54.712 99,-46.112"/>
<polygon fill="black" stroke="black" points="102.5,-46.104 99,-36.104 95.5001,-46.104 102.5,-46.104"/>
</g>
<!-- 76 -->
<g id="node6" class="node"><title>76</title>
<ellipse fill="none" stroke="black" cx="212" cy="-242" rx="30.9235" ry="18"/>
<text text-anchor="middle" x="212" y="-243.6" font-family="Times,serif" font-size="8.00">1</text>
<text text-anchor="middle" x="212" y="-235.6" font-family="Times,serif" font-size="8.00">SplitMap</text>
</g>
<!-- 77 -->
<g id="node7" class="node"><title>77</title>
<ellipse fill="none" stroke="black" cx="139" cy="-166" rx="27" ry="18"/>
<text text-anchor="middle" x="139" y="-167.6" font-family="Times,serif" font-size="8.00">1</text>
<text text-anchor="middle" x="139" y="-159.6" font-family="Times,serif" font-size="8.00">Map</text>
</g>
<!-- 76&#45;&gt;77 -->
<g id="edge5" class="edge"><title>76&#45;&gt;77</title>
<path fill="none" stroke="black" d="M197.23,-226.02C186.7,-215.35 172.38,-200.84 160.58,-188.88"/>
<polygon fill="black" stroke="black" points="162.765,-186.111 153.25,-181.45 157.781,-191.027 162.765,-186.111"/>
</g>
<!-- 78 -->
<g id="node8" class="node"><title>78</title>
<ellipse fill="none" stroke="black" cx="211" cy="-166" rx="27" ry="18"/>
<text text-anchor="middle" x="211" y="-167.6" font-family="Times,serif" font-size="8.00">2</text>
<text text-anchor="middle" x="211" y="-159.6" font-family="Times,serif" font-size="8.00">Map</text>
</g>
<!-- 76&#45;&gt;78 -->
<g id="edge6" class="edge"><title>76&#45;&gt;78</title>
<path fill="none" stroke="black" d="M211.77,-223.84C211.65,-215.06 211.5,-204.16 211.37,-194.27"/>
<polygon fill="black" stroke="black" points="214.867,-194.021 211.23,-184.07 207.868,-194.117 214.867,-194.021"/>
</g>
<!-- 79 -->
<g id="node9" class="node"><title>79</title>
<polygon fill="none" stroke="black" stroke-dasharray="5,2" points="292.211,-148.049 294.337,-148.148 296.44,-148.295 298.514,-148.491 300.548,-148.735 302.535,-149.027 304.467,-149.364 306.337,-149.748 308.137,-150.176 309.861,-150.647 311.502,-151.161 313.055,-151.715 314.515,-152.308 315.877,-152.939 317.136,-153.605 318.291,-154.306 319.337,-155.039 320.272,-155.801 321.095,-156.592 321.805,-157.408 322.401,-158.248 322.883,-159.109 323.252,-159.989 323.51,-160.886 323.658,-161.797 323.697,-162.719 323.632,-163.65 323.464,-164.587 323.197,-165.529 322.835,-166.471 322.382,-167.413 321.842,-168.35 321.219,-169.281 320.518,-170.203 319.743,-171.114 318.9,-172.011 317.992,-172.891 317.026,-173.752 316.004,-174.592 314.932,-175.408 313.815,-176.199 312.656,-176.961 311.459,-177.694 310.23,-178.395 308.97,-179.061 307.684,-179.692 306.375,-180.285 305.045,-180.839 303.698,-181.353 302.336,-181.824 300.962,-182.252 299.577,-182.636 298.182,-182.973 296.781,-183.265 295.374,-183.509 293.962,-183.705 292.546,-183.852 291.129,-183.951 289.71,-184 288.29,-184 286.871,-183.951 285.454,-183.852 284.038,-183.705 282.626,-183.509 281.219,-183.265 279.818,-182.973 278.423,-182.636 277.038,-182.252 275.664,-181.824 274.302,-181.353 272.955,-180.839 271.625,-180.285 270.316,-179.692 269.03,-179.061 267.77,-178.395 266.541,-177.694 265.344,-176.961 264.185,-176.199 263.068,-175.408 261.996,-174.592 260.974,-173.752 260.008,-172.891 259.1,-172.011 258.257,-171.114 257.482,-170.203 256.781,-169.281 256.158,-168.35 255.618,-167.413 255.165,-166.471 254.803,-165.529 254.536,-164.587 254.368,-163.65 254.303,-162.719 254.342,-161.797 254.49,-160.886 254.748,-159.989 255.117,-159.109 255.599,-158.248 256.195,-157.408 256.905,-156.592 257.728,-155.801 258.663,-155.039 259.709,-154.306 260.864,-153.605 262.123,-152.939 263.485,-152.308 264.945,-151.715 266.498,-151.161 268.139,-150.647 269.863,-150.176 271.663,-149.748 273.533,-149.364 275.465,-149.027 277.452,-148.735 279.486,-148.491 281.56,-148.295 283.663,-148.148 285.789,-148.049 287.928,-148 290.072,-148 292.211,-148.049"/>
<text text-anchor="middle" x="289" y="-167.6" font-family="Times,serif" font-size="8.00">3</text>
<text text-anchor="middle" x="289" y="-159.6" font-family="Times,serif" font-size="8.00">SplitMap</text>
</g>
<!-- 76&#45;&gt;79 -->
<g id="edge7" class="edge"><title>76&#45;&gt;79</title>
<path fill="none" stroke="black" d="M227.58,-226.02C238.86,-215.18 254.27,-200.37 266.83,-188.3"/>
<polygon fill="black" stroke="black" points="269.434,-190.652 274.22,-181.2 264.584,-185.604 269.434,-190.652"/>
</g>
<!-- 99 -->
<g id="node10" class="node"><title>99</title>
<ellipse fill="none" stroke="black" cx="369" cy="-166" rx="29.5" ry="18"/>
<text text-anchor="middle" x="369" y="-167.6" font-family="Times,serif" font-size="8.00">uniendo </text>
<text text-anchor="middle" x="369" y="-159.6" font-family="Times,serif" font-size="8.00">Map</text>
</g>
<!-- 76&#45;&gt;99 -->
<g id="edge8" class="edge"><title>76&#45;&gt;99</title>
<path fill="none" stroke="black" d="M236.44,-230.84C260.7,-220.59 298.81,-204.03 331,-188 333.75,-186.63 336.58,-185.17 339.4,-183.68"/>
<polygon fill="black" stroke="black" points="341.135,-186.721 348.26,-178.88 337.8,-180.566 341.135,-186.721"/>
</g>
<!-- 80 -->
<g id="node11" class="node"><title>80</title>
<ellipse fill="none" stroke="black" cx="293" cy="-242" rx="30.9235" ry="18"/>
<text text-anchor="middle" x="293" y="-243.6" font-family="Times,serif" font-size="8.00">4</text>
<text text-anchor="middle" x="293" y="-235.6" font-family="Times,serif" font-size="8.00">SplitMap</text>
</g>
<!-- 80&#45;&gt;99 -->
<g id="edge9" class="edge"><title>80&#45;&gt;99</title>
<path fill="none" stroke="black" d="M308.38,-226.02C319.37,-215.32 334.33,-200.76 346.64,-188.77"/>
<polygon fill="black" stroke="black" points="349.178,-191.184 353.9,-181.7 344.294,-186.169 349.178,-191.184"/>
</g>
<!-- 81 -->
<g id="node12" class="node"><title>81</title>
<ellipse fill="none" stroke="black" cx="369" cy="-242" rx="27" ry="18"/>
<text text-anchor="middle" x="369" y="-243.6" font-family="Times,serif" font-size="8.00">5</text>
<text text-anchor="middle" x="369" y="-235.6" font-family="Times,serif" font-size="8.00">Map</text>
</g>
<!-- 81&#45;&gt;99 -->
<g id="edge10" class="edge"><title>81&#45;&gt;99</title>
<path fill="none" stroke="black" d="M369,-223.84C369,-215.06 369,-204.16 369,-194.27"/>
<polygon fill="black" stroke="black" points="372.5,-194.07 369,-184.07 365.5,-194.07 372.5,-194.07"/>
</g>
<!-- 82 -->
<g id="node13" class="node"><title>82</title>
<ellipse fill="none" stroke="black" cx="441" cy="-242" rx="27" ry="18"/>
<text text-anchor="middle" x="441" y="-243.6" font-family="Times,serif" font-size="8.00">6</text>
<text text-anchor="middle" x="441" y="-235.6" font-family="Times,serif" font-size="8.00">Map</text>
</g>
<!-- 82&#45;&gt;99 -->
<g id="edge11" class="edge"><title>82&#45;&gt;99</title>
<path fill="none" stroke="black" d="M426.78,-226.38C416.49,-215.81 402.4,-201.33 390.71,-189.32"/>
<polygon fill="black" stroke="black" points="392.92,-186.572 383.44,-181.84 387.9,-191.45 392.92,-186.572"/>
</g>
<!-- 50 -->
<g id="node14" class="node"><title>50</title>
<ellipse fill="none" stroke="black" cx="27" cy="-242" rx="27" ry="18"/>
<text text-anchor="middle" x="27" y="-243.6" font-family="Times,serif" font-size="8.00">SciPhy</text>
<text text-anchor="middle" x="27" y="-235.6" font-family="Times,serif" font-size="8.00">Map</text>
</g>
<!-- 50&#45;&gt;75 -->
<g id="edge12" class="edge"><title>50&#45;&gt;75</title>
<path fill="none" stroke="black" d="M34.99,-224.58C38.905,-216.53 43.746,-206.58 48.297,-197.22"/>
<polygon fill="black" stroke="black" points="51.4772,-198.683 52.705,-188.16 45.1827,-195.621 51.4772,-198.683"/>
</g>
<!-- 51 -->
<g id="node15" class="node"><title>51</title>
<ellipse fill="none" stroke="black" cx="99" cy="-242" rx="27" ry="18"/>
<text text-anchor="middle" x="99" y="-243.6" font-family="Times,serif" font-size="8.00">teste</text>
<text text-anchor="middle" x="99" y="-235.6" font-family="Times,serif" font-size="8.00">Reduce</text>
</g>
<!-- 51&#45;&gt;75 -->
<g id="edge13" class="edge"><title>51&#45;&gt;75</title>
<path fill="none" stroke="black" d="M91.01,-224.58C87.095,-216.53 82.254,-206.58 77.703,-197.22"/>
<polygon fill="black" stroke="black" points="80.8173,-195.621 73.295,-188.16 74.5228,-198.683 80.8173,-195.621"/>
</g>
</g>
</svg>
