<?xml version="1.0" encoding="UTF-8" standalone="no"?>
<!DOCTYPE svg PUBLIC "-//W3C//DTD SVG 1.1//EN"
 "http://www.w3.org/Graphics/SVG/1.1/DTD/svg11.dtd">
<!-- Generated by graphviz version 2.38.0 (20140413.2041)
 -->
<!-- Title: %3 Pages: 1 -->
<svg width="170pt" height="124pt"
 viewBox="0.00 0.00 169.61 124.00" xmlns="http://www.w3.org/2000/svg" xmlns:xlink="http://www.w3.org/1999/xlink">
<g id="graph0" class="graph" transform="scale(1 1) rotate(0) translate(4 120)">
<title>%3</title>
<polygon fill="white" stroke="none" points="-4,4 -4,-120 165.607,-120 165.607,4 -4,4"/>
<!-- ELA_75 -->
<g id="node1" class="node"><title>ELA_75</title>
<polygon fill="none" stroke="black" points="114.807,-14.5442 114.807,-29.4558 93.0565,-40 62.2961,-40 40.5452,-29.4558 40.5452,-14.5442 62.2961,-4 93.0565,-4 114.807,-14.5442"/>
<polygon fill="none" stroke="black" points="118.789,-12.0329 118.789,-31.9671 93.9668,-44 61.3858,-44 36.5639,-31.9671 36.5639,-12.0329 61.3858,-7.10543e-15 93.9668,-0 118.789,-12.0329"/>
<text text-anchor="middle" x="77.6763" y="-23.6" font-family="Times,serif" font-size="8.00">Teste2</text>
<text text-anchor="middle" x="77.6763" y="-15.6" font-family="Times,serif" font-size="8.00">&lt;&lt;Filter&gt;&gt;</text>
</g>
<!-- ELA_50 -->
<g id="node2" class="node"><title>ELA_50</title>
<ellipse fill="none" stroke="black" cx="32.6763" cy="-98" rx="32.8535" ry="18"/>
<text text-anchor="middle" x="32.6763" y="-99.6" font-family="Times,serif" font-size="8.00">SciPhy</text>
<text text-anchor="middle" x="32.6763" y="-91.6" font-family="Times,serif" font-size="8.00">&lt;&lt;Map&gt;&gt;</text>
</g>
<!-- ELA_50&#45;&gt;ELA_75 -->
<g id="edge1" class="edge"><title>ELA_50&#45;&gt;ELA_75</title>
<path fill="none" stroke="black" d="M42.6632,-80.577C47.6081,-72.4455 53.7351,-62.3699 59.4746,-52.9316"/>
<polygon fill="black" stroke="black" points="62.6021,-54.5249 64.8075,-44.1621 56.6211,-50.8878 62.6021,-54.5249"/>
</g>
<!-- ELA_51 -->
<g id="node3" class="node"><title>ELA_51</title>
<ellipse fill="none" stroke="black" cx="122.676" cy="-98" rx="38.8625" ry="18"/>
<text text-anchor="middle" x="122.676" y="-99.6" font-family="Times,serif" font-size="8.00">teste</text>
<text text-anchor="middle" x="122.676" y="-91.6" font-family="Times,serif" font-size="8.00">&lt;&lt;Reduce&gt;&gt;</text>
</g>
<!-- ELA_51&#45;&gt;ELA_75 -->
<g id="edge2" class="edge"><title>ELA_51&#45;&gt;ELA_75</title>
<path fill="none" stroke="black" d="M112.689,-80.577C107.745,-72.4455 101.617,-62.3699 95.8779,-52.9316"/>
<polygon fill="black" stroke="black" points="98.7315,-50.8878 90.5451,-44.1621 92.7505,-54.5249 98.7315,-50.8878"/>
</g>
</g>
</svg>
