<?xml version="1.0" encoding="UTF-8" standalone="no"?>
<!DOCTYPE svg PUBLIC "-//W3C//DTD SVG 1.1//EN"
 "http://www.w3.org/Graphics/SVG/1.1/DTD/svg11.dtd">
<!-- Generated by graphviz version 2.38.0 (20140413.2041)
 -->
<!-- Title: %3 Pages: 1 -->
<svg width="280pt" height="260pt"
 viewBox="0.00 0.00 279.71 260.00" xmlns="http://www.w3.org/2000/svg" xmlns:xlink="http://www.w3.org/1999/xlink">
<g id="graph0" class="graph" transform="scale(1 1) rotate(0) translate(4 256)">
<title>%3</title>
<polygon fill="white" stroke="none" points="-4,4 -4,-256 275.71,-256 275.71,4 -4,4"/>
<!-- 48 -->
<g id="node1" class="node"><title>48</title>
<ellipse fill="none" stroke="black" cx="30.711" cy="-90" rx="30.9235" ry="18"/>
<text text-anchor="middle" x="30.711" y="-91.6" font-family="Times,serif" font-size="8.00">Blast</text>
<text text-anchor="middle" x="30.711" y="-83.6" font-family="Times,serif" font-size="8.00">SplitMap</text>
</g>
<!-- 55 -->
<g id="node2" class="node"><title>55</title>
<ellipse fill="none" stroke="black" cx="85.711" cy="-18" rx="32.5" ry="18"/>
<text text-anchor="middle" x="85.711" y="-19.6" font-family="Times,serif" font-size="8.00">Filter2</text>
<text text-anchor="middle" x="85.711" y="-11.6" font-family="Times,serif" font-size="8.00">MRQuery</text>
</g>
<!-- 48&#45;&gt;55 -->
<g id="edge1" class="edge"><title>48&#45;&gt;55</title>
<path fill="none" stroke="black" d="M42.917,-73.465C49.939,-64.528 58.911,-53.109 66.825,-43.037"/>
<polygon fill="black" stroke="black" points="69.7318,-45.0026 73.158,-34.977 64.2276,-40.6777 69.7318,-45.0026"/>
</g>
<!-- 51 -->
<g id="node3" class="node"><title>51</title>
<ellipse fill="none" stroke="black" cx="74.711" cy="-162" rx="30.9235" ry="18"/>
<text text-anchor="middle" x="74.711" y="-163.6" font-family="Times,serif" font-size="8.00">Prodigal</text>
<text text-anchor="middle" x="74.711" y="-155.6" font-family="Times,serif" font-size="8.00">SplitMap</text>
</g>
<!-- 54 -->
<g id="node4" class="node"><title>54</title>
<ellipse fill="none" stroke="black" cx="141.71" cy="-90" rx="32.5" ry="18"/>
<text text-anchor="middle" x="141.71" y="-91.6" font-family="Times,serif" font-size="8.00">Filter1</text>
<text text-anchor="middle" x="141.71" y="-83.6" font-family="Times,serif" font-size="8.00">MRQuery</text>
</g>
<!-- 51&#45;&gt;54 -->
<g id="edge2" class="edge"><title>51&#45;&gt;54</title>
<path fill="none" stroke="black" d="M89.249,-145.81C98.292,-136.36 110.08,-124.04 120.2,-113.48"/>
<polygon fill="black" stroke="black" points="122.818,-115.806 127.2,-106.16 117.759,-110.968 122.818,-115.806"/>
</g>
<!-- 54&#45;&gt;55 -->
<g id="edge3" class="edge"><title>54&#45;&gt;55</title>
<path fill="none" stroke="black" d="M129,-73.116C121.84,-64.166 112.76,-52.81 104.76,-42.815"/>
<polygon fill="black" stroke="black" points="107.347,-40.4455 98.368,-34.821 101.879,-44.817 107.347,-40.4455"/>
</g>
<!-- 52 -->
<g id="node5" class="node"><title>52</title>
<ellipse fill="none" stroke="black" cx="156.71" cy="-162" rx="33.1651" ry="18"/>
<text text-anchor="middle" x="156.71" y="-163.6" font-family="Times,serif" font-size="8.00">MetaGene</text>
<text text-anchor="middle" x="156.71" y="-155.6" font-family="Times,serif" font-size="8.00">SplitMap</text>
</g>
<!-- 52&#45;&gt;54 -->
<g id="edge4" class="edge"><title>52&#45;&gt;54</title>
<path fill="none" stroke="black" d="M153.08,-144.05C151.41,-136.26 149.39,-126.82 147.51,-118.08"/>
<polygon fill="black" stroke="black" points="150.928,-117.325 145.41,-108.28 144.083,-118.791 150.928,-117.325"/>
</g>
<!-- 53 -->
<g id="node6" class="node"><title>53</title>
<ellipse fill="none" stroke="black" cx="239.71" cy="-162" rx="32" ry="18"/>
<text text-anchor="middle" x="239.71" y="-163.6" font-family="Times,serif" font-size="8.00">FragGene</text>
<text text-anchor="middle" x="239.71" y="-155.6" font-family="Times,serif" font-size="8.00">SplitMap</text>
</g>
<!-- 53&#45;&gt;54 -->
<g id="edge5" class="edge"><title>53&#45;&gt;54</title>
<path fill="none" stroke="black" d="M220.35,-147.17C205.85,-136.82 185.81,-122.5 169.59,-110.91"/>
<polygon fill="black" stroke="black" points="171.203,-107.761 161.03,-104.8 167.136,-113.458 171.203,-107.761"/>
</g>
<!-- 16 -->
<g id="node7" class="node"><title>16</title>
<ellipse fill="none" stroke="black" cx="115.71" cy="-234" rx="41.2808" ry="18"/>
<text text-anchor="middle" x="115.71" y="-235.6" font-family="Times,serif" font-size="8.00">PreProcessing</text>
<text text-anchor="middle" x="115.71" y="-227.6" font-family="Times,serif" font-size="8.00">Map</text>
</g>
<!-- 16&#45;&gt;48 -->
<g id="edge6" class="edge"><title>16&#45;&gt;48</title>
<path fill="none" stroke="black" d="M85.656,-221.69C67.534,-213.17 45.864,-199.56 34.711,-180 24.031,-161.27 23.797,-136.54 25.799,-117.91"/>
<polygon fill="black" stroke="black" points="29.2676,-118.377 27.131,-108 22.33,-117.445 29.2676,-118.377"/>
</g>
<!-- 16&#45;&gt;51 -->
<g id="edge7" class="edge"><title>16&#45;&gt;51</title>
<path fill="none" stroke="black" d="M105.99,-216.41C101.09,-208.04 95.041,-197.71 89.57,-188.37"/>
<polygon fill="black" stroke="black" points="92.4317,-186.33 84.358,-179.47 86.3912,-189.868 92.4317,-186.33"/>
</g>
<!-- 16&#45;&gt;52 -->
<g id="edge8" class="edge"><title>16&#45;&gt;52</title>
<path fill="none" stroke="black" d="M125.43,-216.41C130.33,-208.04 136.38,-197.71 141.85,-188.37"/>
<polygon fill="black" stroke="black" points="145.029,-189.868 147.06,-179.47 138.987,-186.332 145.029,-189.868"/>
</g>
<!-- 16&#45;&gt;53 -->
<g id="edge9" class="edge"><title>16&#45;&gt;53</title>
<path fill="none" stroke="black" d="M139.91,-219.34C159.68,-208.18 187.74,-192.34 209.08,-180.29"/>
<polygon fill="black" stroke="black" points="211.073,-183.184 218.06,-175.22 207.631,-177.089 211.073,-183.184"/>
</g>
</g>
</svg>
